{"asset":{"generator":"Khronos glTF Spline I/O v0.0.1","version":"2.0"},"scenes":[{"nodes":[0]}],"nodes":[{"name":"","children":[1,2,3,4,5,6,7,8,9,10,11]},{"name":"Spot Light","translation":[-3.0190211969809013,94.1840890931298,247.6289488945461],"rotation":[0.5899834346066172,0,0,0.8074153496743665],"extensions":{"KHR_lights_punctual":{"light":0}}},{"name":"Camera","camera":0,"translation":[0,-3.3526809506628123e-14,214.63876394293752],"rotation":[-3.061616997868383e-17,0,0,1]},{"name":"nodejs","matrix":[0.13188446422664948,0,0,0,0,0.1300846443499877,0,0,0,0,0.0711111111111111,0,34.46980905789687,57.39534927818012,-7.933333333333331,0.9999999999999999],"children":[12,13]},{"name":"TAILWIND","matrix":[1.8250664787551878,0,0.4060981724254472,0,0,1.7311111111111106,0,0,-0.029209643747470183,0,0.06800042678383261,0,-25.751021584075005,-29.603983278168872,45.715347085294916,0.9999999999999999],"children":[14,15]},{"name":"CSS","matrix":[0.06327851854533248,3.332839406111612e-17,-0.017149076646365714,0,-0.002615752228690905,0.0583019552085654,-0.008851839138086466,0,0.017715224301501558,0.008608610688655736,0.05994922381868467,0,-6.620033184351767,30.00777148199134,-11.993885243453946,1],"children":[16,17]},{"name":"GIT","matrix":[2.7273645139549108,-2.1495151337881406e-17,-0.16582481878827993,0,0.004376511975970081,2.7269796248626963,0.012695662836872951,0,0.11548769785683649,-0.016986825431379828,0.3350140207195632,0,13.905192154182458,-33.56479403509843,32.63356864368827,0.9999999999999998],"children":[18]},{"name":"REACT","matrix":[0.6430558440056701,2.3093506273941244e-17,-0.25388008940303125,0,0.039722077863986724,0.66964623834316,0.10061251501268752,0,0.24997231356380695,-0.1099580844844007,0.6331577929360249,0,-26.93647078758409,-9.886815096482607,-60.19322358479628,1.0000000000000002],"children":[19,20]},{"name":"HTML","matrix":[0.3570031840128909,-0.015348439401969002,0.1045809159991336,0,0.043856837459481046,0.3288238673019374,-0.10852662537538535,0,-0.11840846744075975,0.07317521582401708,0.44114817035854104,0,-61.76006322143582,54.03050489373692,-38.81606391812783,0.9999999999999996],"children":[21]},{"name":"Github","matrix":[1.6386498632253261,0,1.1466588968614937,0,0,2,0,0,-1.1466588968614937,0,1.6386498632253261,0,42.67736748503848,17.83086691387092,3.7591622114833854,1],"mesh":0},{"name":"adobe","matrix":[1.5054087616448866,0,-0.32284868922726445,0,0,1.601626259143476,0,0,0.32423772500669623,0,1.498959584170083,0,-63.13280343486291,6.265314575399399,57.96224602972633,1],"children":[22,23]},{"name":"Personal Camera","camera":1,"translation":[54.313367082056565,37.051988684766904,258.7556209018562],"rotation":[-0.059420516820993,0.0007398542057589139,0.00004404034893021478,0.9982327648684589]},{"name":"node_0","matrix":[1,0,0,0,0,1,0,0,0,0,1,0,5.68434189e-14,-2.78260752,0,1],"mesh":1},{"name":"node_1","matrix":[1,0,0,0,0,1,0,0,0,0,1,0,104.679089,-86.7908901,0.01,1],"mesh":2},{"name":"tailwind_0","matrix":[0.9999999999999776,0,0,0,0,0.9999999999999776,0,0,0,0,0.9999999999999776,0,-4.269089368946039,5.654474585995131,31.467674374945712,0.9999999999999776],"mesh":3},{"name":"tailwind_1","matrix":[0.9999999999999776,0,0,0,0,0.9999999999999776,0,0,0,0,0.9999999999999776,0,-7.769092868945961,1.154484585995232,31.47767437494571,0.9999999999999776],"mesh":4},{"name":"css_0","matrix":[1,0,0,0,0,1,0,0,0,0,1,0,21.376,0,0,1],"mesh":5},{"name":"css_1","matrix":[1,0,0,0,0,1,0,0,0,0,1,0,127.97799999999998,-106.688,0.01,1],"mesh":6},{"name":"git_0","matrix":[1,0,0,0,0,1,0,0,0,0,1,0,-6.351787514742105,8.175754136946457,0,1],"mesh":7},{"name":"react_0","matrix":[2.25,0,0,0,0,2.1341316291722547,0,0,0,0,1,0,-33,25.32524203300548,0,1],"mesh":8},{"name":"react_1","matrix":[2.25,0,0,0,0,2.1341316291722547,0,0,0,0,1,0,-8.25,4.750879295516711,0.01,1],"mesh":9},{"name":"html_0","matrix":[1,0,0,0,0,1,0,0,0,0,1,0,0,0,0,1],"mesh":10},{"name":"adobe_0","matrix":[0.8779019914628795,-0.0005139254445965794,-0.4810297205906211,0,-0.14890768027836168,0.9549140027930104,-0.27278377623489986,0,0.45482977844627903,0.3079563719564425,0.8297568415713746,0,4.00212243520658,-5.749189409640591,1.0567228262051032,1],"mesh":11},{"name":"adobe_1","matrix":[0.8779019914628795,-0.0005139254445965794,-0.4810297205906211,0,-0.14890768027836168,0.9549140027930104,-0.27278377623489986,0,0.45482977844627903,0.3079563719564425,0.8297568415713746,0,-1.1601645959402447,-0.9950854629503407,2.061145411835156,1],"mesh":12}],"cameras":[{"type":"perspective","perspective":{"aspectRatio":2.0868385345997287,"yfov":0.7853981633974483,"znear":5,"zfar":100000}},{"type":"perspective","perspective":{"aspectRatio":1.920099875156055,"yfov":0.7853981633974483,"znear":5,"zfar":100000}}],"meshes":[{"primitives":[{"attributes":{"POSITION":1,"NORMAL":2,"TEXCOORD_0":3},"indices":0}]},{"primitives":[{"attributes":{"POSITION":5,"NORMAL":6,"TEXCOORD_0":7},"indices":4}]},{"primitives":[{"attributes":{"POSITION":9,"NORMAL":10,"TEXCOORD_0":11},"indices":8}]},{"primitives":[{"attributes":{"POSITION":13,"NORMAL":14,"TEXCOORD_0":15},"indices":12}]},{"primitives":[{"attributes":{"POSITION":17,"NORMAL":18,"TEXCOORD_0":19},"indices":16}]},{"primitives":[{"attributes":{"POSITION":21,"NORMAL":22,"TEXCOORD_0":23},"indices":20}]},{"primitives":[{"attributes":{"POSITION":25,"NORMAL":26,"TEXCOORD_0":27},"indices":24}]},{"primitives":[{"attributes":{"POSITION":29,"NORMAL":30,"TEXCOORD_0":31},"indices":28}]},{"primitives":[{"attributes":{"POSITION":33,"NORMAL":34,"TEXCOORD_0":35},"indices":32}]},{"primitives":[{"attributes":{"POSITION":37,"NORMAL":38,"TEXCOORD_0":39},"indices":36}]},{"primitives":[{"attributes":{"POSITION":41,"NORMAL":42,"TEXCOORD_0":43},"indices":40}]},{"primitives":[{"attributes":{"POSITION":45,"NORMAL":46,"TEXCOORD_0":47},"indices":44}]},{"primitives":[{"attributes":{"POSITION":49,"NORMAL":50,"TEXCOORD_0":51},"indices":48}]}],"buffers":[{"uri":"data:application/octet-stream;base64,","byteLength":206952},{"uri":"data:application/octet-stream;base64,","byteLength":161232},{"uri":"data:application/octet-stream;base64,","byteLength":112848},{"uri":"data:application/octet-stream;base64,","byteLength":94128},{"uri":"data:application/octet-stream;base64,","byteLength":94128},{"uri":"data:application/octet-stream;base64,","byteLength":71232},{"uri":"data:application/octet-stream;base64,","byteLength":153840},{"uri":"data:application/octet-stream;base64,","byteLength":115488},{"uri":"data:application/octet-stream;base64,","byteLength":673056},{"uri":"data:application/octet-stream;base64,","byteLength":48384},{"uri":"data:application/octet-stream;base64,","byteLength":30240},{"uri":"data:application/octet-stream;base64,","byteLength":21504},{"uri":"data:application/octet-stream;base64,","byteLength":117984}],"bufferViews":[{"buffer":0,"byteOffset":0,"byteLength":29736,"target":34963},{"buffer":0,"byteOffset":29736,"byteLength":59072,"target":34962},{"buffer":0,"byteOffset":88808,"byteLength":59072,"target":34962},{"buffer":0,"byteOffset":147880,"byteLength":59072,"target":34962},{"buffer":1,"byteOffset":0,"byteLength":23568,"target":34963},{"buffer":1,"byteOffset":23568,"byteLength":45888,"target":34962},{"buffer":1,"byteOffset":69456,"byteLength":45888,"target":34962},{"buffer":1,"byteOffset":115344,"byteLength":45888,"target":34962},{"buffer":2,"byteOffset":0,"byteLength":16848,"target":34963},{"buffer":2,"byteOffset":16848,"byteLength":32000,"target":34962},{"buffer":2,"byteOffset":48848,"byteLength":32000,"target":34962},{"buffer":2,"byteOffset":80848,"byteLength":32000,"target":34962},{"buffer":3,"byteOffset":0,"byteLength":10416,"target":34963},{"buffer":3,"byteOffset":10416,"byteLength":27904,"target":34962},{"buffer":3,"byteOffset":38320,"byteLength":27904,"target":34962},{"buffer":3,"byteOffset":66224,"byteLength":27904,"target":34962},{"buffer":4,"byteOffset":0,"byteLength":10416,"target":34963},{"buffer":4,"byteOffset":10416,"byteLength":27904,"target":34962},{"buffer":4,"byteOffset":38320,"byteLength":27904,"target":34962},{"buffer":4,"byteOffset":66224,"byteLength":27904,"target":34962},{"buffer":5,"byteOffset":0,"byteLength":10176,"target":34963},{"buffer":5,"byteOffset":10176,"byteLength":20352,"target":34962},{"buffer":5,"byteOffset":30528,"byteLength":20352,"target":34962},{"buffer":5,"byteOffset":50880,"byteLength":20352,"target":34962},{"buffer":6,"byteOffset":0,"byteLength":21936,"target":34963},{"buffer":6,"byteOffset":21936,"byteLength":43968,"target":34962},{"buffer":6,"byteOffset":65904,"byteLength":43968,"target":34962},{"buffer":6,"byteOffset":109872,"byteLength":43968,"target":34962},{"buffer":7,"byteOffset":0,"byteLength":12576,"target":34963},{"buffer":7,"byteOffset":12576,"byteLength":34304,"target":34962},{"buffer":7,"byteOffset":46880,"byteLength":34304,"target":34962},{"buffer":7,"byteOffset":81184,"byteLength":34304,"target":34962},{"buffer":8,"byteOffset":0,"byteLength":75168,"target":34963},{"buffer":8,"byteOffset":75168,"byteLength":199296,"target":34962},{"buffer":8,"byteOffset":274464,"byteLength":199296,"target":34962},{"buffer":8,"byteOffset":473760,"byteLength":199296,"target":34962},{"buffer":9,"byteOffset":0,"byteLength":5376,"target":34963},{"buffer":9,"byteOffset":5376,"byteLength":14336,"target":34962},{"buffer":9,"byteOffset":19712,"byteLength":14336,"target":34962},{"buffer":9,"byteOffset":34048,"byteLength":14336,"target":34962},{"buffer":10,"byteOffset":0,"byteLength":3360,"target":34963},{"buffer":10,"byteOffset":3360,"byteLength":8960,"target":34962},{"buffer":10,"byteOffset":12320,"byteLength":8960,"target":34962},{"buffer":10,"byteOffset":21280,"byteLength":8960,"target":34962},{"buffer":11,"byteOffset":0,"byteLength":2304,"target":34963},{"buffer":11,"byteOffset":2304,"byteLength":6400,"target":34962},{"buffer":11,"byteOffset":8704,"byteLength":6400,"target":34962},{"buffer":11,"byteOffset":15104,"byteLength":6400,"target":34962},{"buffer":12,"byteOffset":0,"byteLength":13152,"target":34963},{"buffer":12,"byteOffset":13152,"byteLength":34944,"target":34962},{"buffer":12,"byteOffset":48096,"byteLength":34944,"target":34962},{"buffer":12,"byteOffset":83040,"byteLength":34944,"target":34962}],"accessors":[{"bufferView":0,"byteOffset":0,"componentType":5125,"count":7434,"type":"SCALAR","min":[0],"max":[1845]},{"bufferView":1,"byteOffset":0,"componentType":5126,"count":1846,"type":"VEC3","min":[-0.10110220313072205,-31.89317512512207,0],"max":[33.89889907836914,0.10682512074708939,5]},{"bufferView":2,"byteOffset":0,"componentType":5126,"count":1846,"type":"VEC3","min":[-1,-0.9999924898147583,-1],"max":[1,0.999875545501709,1]},{"bufferView":3,"byteOffset":0,"componentType":5126,"count":1846,"type":"VEC2","min":[0,0],"max":[1,1]},{"bufferView":4,"byteOffset":0,"componentType":5125,"count":5892,"type":"SCALAR","min":[0],"max":[1433]},{"bufferView":5,"byteOffset":0,"componentType":5126,"count":1434,"type":"VEC3","min":[0,-285.68115234375,0],"max":[256,2.7826075553894043,80]},{"bufferView":6,"byteOffset":0,"componentType":5126,"count":1434,"type":"VEC3","min":[-1,-0.9999967217445374,-1],"max":[1,1,1]},{"bufferView":7,"byteOffset":0,"componentType":5126,"count":1434,"type":"VEC2","min":[0,0],"max":[1,1]},{"bufferView":8,"byteOffset":0,"componentType":5125,"count":4212,"type":"SCALAR","min":[0],"max":[999]},{"bufferView":9,"byteOffset":0,"componentType":5126,"count":1000,"type":"VEC3","min":[0,-117.66459655761719,0],"max":[108.91925811767578,0,80]},{"bufferView":10,"byteOffset":0,"componentType":5126,"count":1000,"type":"VEC3","min":[-0.9990813732147217,-1,-1],"max":[0.999614417552948,1,1]},{"bufferView":11,"byteOffset":0,"componentType":5126,"count":1000,"type":"VEC2","min":[0,0],"max":[1,1]},{"bufferView":12,"byteOffset":0,"componentType":5125,"count":2604,"type":"SCALAR","min":[0],"max":[871]},{"bufferView":13,"byteOffset":0,"componentType":5126,"count":872,"type":"VEC3","min":[-0.013131944462656975,-5.499989986419678,0],"max":[11.48697280883789,0,40]},{"bufferView":14,"byteOffset":0,"componentType":5126,"count":872,"type":"VEC3","min":[-0.9985931515693665,-0.9999182820320129,-1],"max":[0.9986004829406738,0.9999180436134338,1]},{"bufferView":15,"byteOffset":0,"componentType":5126,"count":872,"type":"VEC2","min":[0,0],"max":[1,1]},{"bufferView":16,"byteOffset":0,"componentType":5125,"count":2604,"type":"SCALAR","min":[0],"max":[871]},{"bufferView":17,"byteOffset":0,"componentType":5126,"count":872,"type":"VEC3","min":[-0.013129259459674358,-5.500010013580322,0],"max":[11.486976623535156,0,40]},{"bufferView":18,"byteOffset":0,"componentType":5126,"count":872,"type":"VEC3","min":[-0.9985937476158142,-0.9999173879623413,-1],"max":[0.9986005425453186,0.9999182820320129,1]},{"bufferView":19,"byteOffset":0,"componentType":5126,"count":872,"type":"VEC2","min":[0,0],"max":[1,1]},{"bufferView":20,"byteOffset":0,"componentType":5125,"count":2544,"type":"SCALAR","min":[0],"max":[635]},{"bufferView":21,"byteOffset":0,"componentType":5126,"count":636,"type":"VEC3","min":[-0.0482187494635582,-512,0],"max":[469.2969665527344,0,200]},{"bufferView":22,"byteOffset":0,"componentType":5126,"count":636,"type":"VEC3","min":[-0.9999834299087524,-1,-1],"max":[0.9999814033508301,1,1]},{"bufferView":23,"byteOffset":0,"componentType":5126,"count":636,"type":"VEC2","min":[0,0],"max":[1,1]},{"bufferView":24,"byteOffset":0,"componentType":5125,"count":5484,"type":"SCALAR","min":[0],"max":[1373]},{"bufferView":25,"byteOffset":0,"componentType":5126,"count":1374,"type":"VEC3","min":[0,-298.6470031738281,0],"max":[277.33697509765625,0,200]},{"bufferView":26,"byteOffset":0,"componentType":5126,"count":1374,"type":"VEC3","min":[-0.9999880194664001,-1,-1],"max":[0.9999353289604187,1,1]},{"bufferView":27,"byteOffset":0,"componentType":5126,"count":1374,"type":"VEC2","min":[0,0],"max":[1,1]},{"bufferView":28,"byteOffset":0,"componentType":5125,"count":3144,"type":"SCALAR","min":[0],"max":[1071]},{"bufferView":29,"byteOffset":0,"componentType":5126,"count":1072,"type":"VEC3","min":[-0.43933936953544617,-13.732226371765137,0],"max":[13.73220443725586,0.43933936953544617,17]},{"bufferView":30,"byteOffset":0,"componentType":5126,"count":1072,"type":"VEC3","min":[-1,-0.9998222589492798,-1],"max":[1,0.9979760646820068,1]},{"bufferView":31,"byteOffset":0,"componentType":5126,"count":1072,"type":"VEC2","min":[0,0],"max":[1,1]},{"bufferView":32,"byteOffset":0,"componentType":5125,"count":18792,"type":"SCALAR","min":[0],"max":[6227]},{"bufferView":33,"byteOffset":0,"componentType":5126,"count":6228,"type":"VEC3","min":[0,-25.292375564575195,0],"max":[28,0.011151444166898727,15]},{"bufferView":34,"byteOffset":0,"componentType":5126,"count":6228,"type":"VEC3","min":[-0.9999646544456482,-0.999997615814209,-1],"max":[0.9999645948410034,0.999997615814209,1]},{"bufferView":35,"byteOffset":0,"componentType":5126,"count":6228,"type":"VEC2","min":[0,0],"max":[1,1]},{"bufferView":36,"byteOffset":0,"componentType":5125,"count":1344,"type":"SCALAR","min":[0],"max":[447]},{"bufferView":37,"byteOffset":0,"componentType":5126,"count":448,"type":"VEC3","min":[0,-6,0],"max":[6,0,15]},{"bufferView":38,"byteOffset":0,"componentType":5126,"count":448,"type":"VEC3","min":[-0.998479425907135,-0.998479425907135,-1],"max":[0.998479425907135,0.998479425907135,1]},{"bufferView":39,"byteOffset":0,"componentType":5126,"count":448,"type":"VEC2","min":[0,0],"max":[1,1]},{"bufferView":40,"byteOffset":0,"componentType":5125,"count":840,"type":"SCALAR","min":[0],"max":[279]},{"bufferView":41,"byteOffset":0,"componentType":5126,"count":280,"type":"VEC3","min":[0,-121.38217163085938,0],"max":[107.40725708007812,0,25]},{"bufferView":42,"byteOffset":0,"componentType":5126,"count":280,"type":"VEC3","min":[-0.9960489273071289,-1,-1],"max":[0.9998375773429871,1,1]},{"bufferView":43,"byteOffset":0,"componentType":5126,"count":280,"type":"VEC2","min":[0,0],"max":[1,1]},{"bufferView":44,"byteOffset":0,"componentType":5125,"count":576,"type":"SCALAR","min":[0],"max":[199]},{"bufferView":45,"byteOffset":0,"componentType":5126,"count":200,"type":"VEC3","min":[0,-2.9839999675750732,0],"max":[2.5980000495910645,0,4]},{"bufferView":46,"byteOffset":0,"componentType":5126,"count":200,"type":"VEC3","min":[-1,-0.9999923706054688,-1],"max":[0.9981687664985657,0.9999671578407288,1]},{"bufferView":47,"byteOffset":0,"componentType":5126,"count":200,"type":"VEC2","min":[0,0],"max":[1,1]},{"bufferView":48,"byteOffset":0,"componentType":5125,"count":3288,"type":"SCALAR","min":[0],"max":[1091]},{"bufferView":49,"byteOffset":0,"componentType":5126,"count":1092,"type":"VEC3","min":[0,-17.46500015258789,0],"max":[17.4689998626709,0,4]},{"bufferView":50,"byteOffset":0,"componentType":5126,"count":1092,"type":"VEC3","min":[-1,-1,-1],"max":[1,1,1]},{"bufferView":51,"byteOffset":0,"componentType":5126,"count":1092,"type":"VEC2","min":[0,0],"max":[1,1]}],"extensions":{"KHR_lights_punctual":{"lights":[{"type":"spot","name":"Spot Light","color":[1,1,1],"intensity":1,"range":2000,"spot":{"innerConeAngle":0.5235987755982988,"outerConeAngle":0.5235987755982988}}]}},"extensionsUsed":["KHR_lights_punctual"]}