{"asset":{"generator":"Khronos glTF Spline I/O v0.0.1","version":"2.0"},"scenes":[{"nodes":[0]}],"nodes":[{"name":"","children":[1,2,3,4,5,6,7,8,9]},{"name":"Personal Camera","camera":0,"translation":[888.8274716924307,447.46938448210784,98.77689768386017],"rotation":[-0.17130059809363182,0.6490513510122555,0.15331823016594207,0.7251771984423623]},{"name":"tailwind-svgrepo-com","matrix":[0.8999087541601192,-3.816391647148974e-17,-0.4360782431926421,0,0.048622146421565406,0.9937645824929339,0.10033863393522327,0,0.433359113280592,-0.1114986752505477,0.8942974473596752,0,-173.09336497509483,-96.57306828322946,237.86595085481858,1],"children":[10,11]},{"name":"git-svgrepo-com","matrix":[5.456832731674789,0,0.059954525161858285,0,0,5.466666666666667,0,0,-0.3277514042181586,0,0.9982011094527052,0,-44.62566458589091,-4.417779324651406,81.5218135264785,1],"children":[12]},{"name":"react-js","matrix":[0.9301343457939153,0,-0.36721941502938443,0,0.0585589378419541,0.987203453492747,0.14832461768301136,0,0.36252027470659565,-0.15946580013278522,0.9182318383799724,0,-66.92990241941925,-70.86385697446835,129.40647525558165,1],"children":[13,14]},{"name":"html5","matrix":[0.6889998344045042,-0.029621786807207763,0.20183638979161758,0,0.09863452885876033,0.7395286369840748,-0.2440776212471338,0,-0.22634832485688858,0.13988093825379622,0.8432939935169255,0,47.547884378013556,102.06942524189309,-207.98811416061633,0.9999999999999998],"children":[15]},{"name":"Boolean","matrix":[0.7056100290704937,-0.15547633081475717,-0.6913332028996665,0,-0.056133470334567274,0.8523702180411942,-0.2489851968767696,0,0.6786407291695202,0.23179594748137847,0.6405260435464107,0,-204.7399575230052,2.1996869250299866,-2.800805193158226,0.9999999999999999],"mesh":0,"children":[16,17,18]},{"name":"nodejs","matrix":[0.2946571115061541,0,-0.17166540489152174,0,0,0.2988468418931511,0,0,-0.15717279566466769,0,-0.17266960113782623,0,153.54360247193347,8.960152361113161,-96.65113051907076,1],"children":[19,20]},{"name":"Github","matrix":[1.8790720004101178,0,0.6849002973241515,0,0,2,0,0,-0.6849002973241515,0,1.8790720004101178,0,29.052552311826012,-23.037550905933387,128.795109305375,1],"mesh":1},{"name":"Directional Light 3","translation":[243.8001344118658,238.6189863033165,726.6050642401635],"rotation":[-0.2006950093509864,0.08439600666641554,-0.3783401013403181,0.8996986134246111],"extensions":{"KHR_lights_punctual":{"light":0}}},{"name":"Shape 0","matrix":[5.866625378023097,0,0,0,0,6.699999990901185,0,0,0,0,100.00000000001994,0,-22.96229915297403,35.791020172703625,-0.9899999999996538,1],"mesh":2},{"name":"Shape 1","matrix":[5.866625378023097,0,0,0,0,6.699999990901185,0,0,0,0,100.00000000001994,0,-43.495508509243685,5.6410872136482055,0.01000000000054535,1],"mesh":3},{"name":"Shape 0","matrix":[1,0,0,0,0,1,0,0,0,0,1,0,-6.351787514742105,8.175754136946457,0,1],"mesh":4},{"name":"Shape 0","matrix":[2.25,0,0,0,0,2.1341316291722547,0,0,0,0,1,0,-33,25.32524203300548,0,1],"mesh":5},{"name":"Shape 0","matrix":[2.25,0,0,0,0,2.1341316291722547,0,0,0,0,1,0,-8.25,4.750879295516711,0.01,1],"mesh":6},{"name":"Shape 0","matrix":[1,0,0,0,0,1,0,0,0,0,1,0,0,0,0,1],"mesh":7},{"name":"P","matrix":[1,0,0,0,0,1,0,0,0,0,1,0,-45.612,-26.25,-15.904968526411267,1],"mesh":8},{"name":"s","matrix":[1,0,0,0,0,1,0,0,0,0,1,0,5.118000000000002,-26.25,-16.309173917314183,1],"mesh":9},{"name":"Rectangle","matrix":[-1,1.2246467991473532e-16,0,0,-1.2246467991473532e-16,-1,0,0,0,0,1,0,0,0,-10.5,1],"mesh":10},{"name":"Shape 0","matrix":[1,0,0,0,0,1,0,0,0,0,1,0,5.68434189e-14,-2.78260752,0,1],"mesh":11},{"name":"Shape 0","matrix":[1,0,0,0,0,1,0,0,0,0,1,0,104.679089,-86.7908901,0.01,1],"mesh":12}],"cameras":[{"type":"perspective","perspective":{"aspectRatio":2.0868385345997287,"yfov":0.7853981633974483,"znear":5,"zfar":100000}}],"meshes":[{"primitives":[{"attributes":{"POSITION":0,"NORMAL":1}}]},{"primitives":[{"attributes":{"POSITION":3,"NORMAL":4,"TEXCOORD_0":5},"indices":2}]},{"primitives":[{"attributes":{"POSITION":7,"NORMAL":8,"TEXCOORD_0":9},"indices":6}]},{"primitives":[{"attributes":{"POSITION":11,"NORMAL":12,"TEXCOORD_0":13},"indices":10}]},{"primitives":[{"attributes":{"POSITION":15,"NORMAL":16,"TEXCOORD_0":17},"indices":14}]},{"primitives":[{"attributes":{"POSITION":19,"NORMAL":20,"TEXCOORD_0":21},"indices":18}]},{"primitives":[{"attributes":{"POSITION":23,"NORMAL":24,"TEXCOORD_0":25},"indices":22}]},{"primitives":[{"attributes":{"POSITION":27,"NORMAL":28,"TEXCOORD_0":29},"indices":26}]},{"primitives":[{"attributes":{"POSITION":31,"NORMAL":32,"TEXCOORD_0":33},"indices":30}]},{"primitives":[{"attributes":{"POSITION":35,"NORMAL":36,"TEXCOORD_0":37},"indices":34}]},{"primitives":[{"attributes":{"POSITION":39,"NORMAL":40,"TEXCOORD_0":41},"indices":38}]},{"primitives":[{"attributes":{"POSITION":43,"NORMAL":44,"TEXCOORD_0":45},"indices":42}]},{"primitives":[{"attributes":{"POSITION":47,"NORMAL":48,"TEXCOORD_0":49},"indices":46}]}],"buffers":[{"uri":"data:application/octet-stream;base64,","byteLength":297792},{"uri":"data:application/octet-stream;base64,","byteLength":224016},{"uri":"data:application/octet-stream;base64,","byteLength":94128},{"uri":"data:application/octet-stream;base64,","byteLength":94128},{"uri":"data:application/octet-stream;base64,","byteLength":105504},{"uri":"data:application/octet-stream;base64,","byteLength":577152},{"uri":"data:application/octet-stream;base64,","byteLength":41472},{"uri":"data:application/octet-stream;base64,","byteLength":13728},{"uri":"data:application/octet-stream;base64,","byteLength":59712},{"uri":"data:application/octet-stream;base64,","byteLength":137232},{"uri":"data:application/octet-stream;base64,","byteLength":70800},{"uri":"data:application/octet-stream;base64,","byteLength":116352},{"uri":"data:application/octet-stream;base64,","byteLength":89136}],"bufferViews":[{"buffer":0,"byteOffset":0,"byteLength":148896,"target":34962},{"buffer":0,"byteOffset":148896,"byteLength":148896,"target":34962},{"buffer":1,"byteOffset":0,"byteLength":31632,"target":34963},{"buffer":1,"byteOffset":31632,"byteLength":64128,"target":34962},{"buffer":1,"byteOffset":95760,"byteLength":64128,"target":34962},{"buffer":1,"byteOffset":159888,"byteLength":64128,"target":34962},{"buffer":2,"byteOffset":0,"byteLength":10416,"target":34963},{"buffer":2,"byteOffset":10416,"byteLength":27904,"target":34962},{"buffer":2,"byteOffset":38320,"byteLength":27904,"target":34962},{"buffer":2,"byteOffset":66224,"byteLength":27904,"target":34962},{"buffer":3,"byteOffset":0,"byteLength":10416,"target":34963},{"buffer":3,"byteOffset":10416,"byteLength":27904,"target":34962},{"buffer":3,"byteOffset":38320,"byteLength":27904,"target":34962},{"buffer":3,"byteOffset":66224,"byteLength":27904,"target":34962},{"buffer":4,"byteOffset":0,"byteLength":11424,"target":34963},{"buffer":4,"byteOffset":11424,"byteLength":31360,"target":34962},{"buffer":4,"byteOffset":42784,"byteLength":31360,"target":34962},{"buffer":4,"byteOffset":74144,"byteLength":31360,"target":34962},{"buffer":5,"byteOffset":0,"byteLength":64512,"target":34963},{"buffer":5,"byteOffset":64512,"byteLength":170880,"target":34962},{"buffer":5,"byteOffset":235392,"byteLength":170880,"target":34962},{"buffer":5,"byteOffset":406272,"byteLength":170880,"target":34962},{"buffer":6,"byteOffset":0,"byteLength":4608,"target":34963},{"buffer":6,"byteOffset":4608,"byteLength":12288,"target":34962},{"buffer":6,"byteOffset":16896,"byteLength":12288,"target":34962},{"buffer":6,"byteOffset":29184,"byteLength":12288,"target":34962},{"buffer":7,"byteOffset":0,"byteLength":1056,"target":34963},{"buffer":7,"byteOffset":1056,"byteLength":4224,"target":34962},{"buffer":7,"byteOffset":5280,"byteLength":4224,"target":34962},{"buffer":7,"byteOffset":9504,"byteLength":4224,"target":34962},{"buffer":8,"byteOffset":0,"byteLength":5376,"target":34963},{"buffer":8,"byteOffset":5376,"byteLength":18112,"target":34962},{"buffer":8,"byteOffset":23488,"byteLength":18112,"target":34962},{"buffer":8,"byteOffset":41600,"byteLength":18112,"target":34962},{"buffer":9,"byteOffset":0,"byteLength":15120,"target":34963},{"buffer":9,"byteOffset":15120,"byteLength":40704,"target":34962},{"buffer":9,"byteOffset":55824,"byteLength":40704,"target":34962},{"buffer":9,"byteOffset":96528,"byteLength":40704,"target":34962},{"buffer":10,"byteOffset":0,"byteLength":7824,"target":34963},{"buffer":10,"byteOffset":7824,"byteLength":20992,"target":34962},{"buffer":10,"byteOffset":28816,"byteLength":20992,"target":34962},{"buffer":10,"byteOffset":49808,"byteLength":20992,"target":34962},{"buffer":11,"byteOffset":0,"byteLength":12864,"target":34963},{"buffer":11,"byteOffset":12864,"byteLength":34496,"target":34962},{"buffer":11,"byteOffset":47360,"byteLength":34496,"target":34962},{"buffer":11,"byteOffset":81856,"byteLength":34496,"target":34962},{"buffer":12,"byteOffset":0,"byteLength":9840,"target":34963},{"buffer":12,"byteOffset":9840,"byteLength":26432,"target":34962},{"buffer":12,"byteOffset":36272,"byteLength":26432,"target":34962},{"buffer":12,"byteOffset":62704,"byteLength":26432,"target":34962}],"accessors":[{"bufferView":0,"byteOffset":0,"componentType":5126,"count":12408,"type":"VEC3","min":[-62.5,-63.5,-10.5],"max":[62.5,63.5,15.5]},{"bufferView":1,"byteOffset":0,"componentType":5126,"count":12408,"type":"VEC3","min":[-1,-1,-1],"max":[1,1,1]},{"bufferView":2,"byteOffset":0,"componentType":5125,"count":7908,"type":"SCALAR","min":[0],"max":[2003]},{"bufferView":3,"byteOffset":0,"componentType":5126,"count":2004,"type":"VEC3","min":[-0.1813892424106598,-59.79970169067383,0],"max":[60.81861114501953,0.20029710233211517,9]},{"bufferView":4,"byteOffset":0,"componentType":5126,"count":2004,"type":"VEC3","min":[-1,-0.999991774559021,-1],"max":[1,0.9998641014099121,1]},{"bufferView":5,"byteOffset":0,"componentType":5126,"count":2004,"type":"VEC2","min":[0,0],"max":[1,1]},{"bufferView":6,"byteOffset":0,"componentType":5125,"count":2604,"type":"SCALAR","min":[0],"max":[871]},{"bufferView":7,"byteOffset":0,"componentType":5126,"count":872,"type":"VEC3","min":[-0.013131944462656975,-5.499989986419678,0],"max":[11.48697280883789,0,0.20000000298023224]},{"bufferView":8,"byteOffset":0,"componentType":5126,"count":872,"type":"VEC3","min":[-0.9985931515693665,-0.9999182820320129,-1],"max":[0.9986004829406738,0.9999180436134338,1]},{"bufferView":9,"byteOffset":0,"componentType":5126,"count":872,"type":"VEC2","min":[0,0],"max":[1,1]},{"bufferView":10,"byteOffset":0,"componentType":5125,"count":2604,"type":"SCALAR","min":[0],"max":[871]},{"bufferView":11,"byteOffset":0,"componentType":5126,"count":872,"type":"VEC3","min":[-0.013129259459674358,-5.500010013580322,0],"max":[11.486976623535156,0,0.20000000298023224]},{"bufferView":12,"byteOffset":0,"componentType":5126,"count":872,"type":"VEC3","min":[-0.9985937476158142,-0.9999173879623413,-1],"max":[0.9986005425453186,0.9999182820320129,1]},{"bufferView":13,"byteOffset":0,"componentType":5126,"count":872,"type":"VEC2","min":[0,0],"max":[1,1]},{"bufferView":14,"byteOffset":0,"componentType":5125,"count":2856,"type":"SCALAR","min":[0],"max":[979]},{"bufferView":15,"byteOffset":0,"componentType":5126,"count":980,"type":"VEC3","min":[-0.43933936953544617,-13.732226371765137,0],"max":[13.73220443725586,0.43933936953544617,15]},{"bufferView":16,"byteOffset":0,"componentType":5126,"count":980,"type":"VEC3","min":[-1,-0.9998222589492798,-1],"max":[1,0.9979760646820068,1]},{"bufferView":17,"byteOffset":0,"componentType":5126,"count":980,"type":"VEC2","min":[0,0],"max":[1,1]},{"bufferView":18,"byteOffset":0,"componentType":5125,"count":16128,"type":"SCALAR","min":[0],"max":[5339]},{"bufferView":19,"byteOffset":0,"componentType":5126,"count":5340,"type":"VEC3","min":[0,-25.29214096069336,0],"max":[28,0.010890615172684193,15]},{"bufferView":20,"byteOffset":0,"componentType":5126,"count":5340,"type":"VEC3","min":[-0.9999997615814209,-0.9999967813491821,-1],"max":[0.9999997615814209,0.9999967813491821,1]},{"bufferView":21,"byteOffset":0,"componentType":5126,"count":5340,"type":"VEC2","min":[0,0],"max":[1,1]},{"bufferView":22,"byteOffset":0,"componentType":5125,"count":1152,"type":"SCALAR","min":[0],"max":[383]},{"bufferView":23,"byteOffset":0,"componentType":5126,"count":384,"type":"VEC3","min":[0,-6,0],"max":[6,0,15]},{"bufferView":24,"byteOffset":0,"componentType":5126,"count":384,"type":"VEC3","min":[-0.9979310631752014,-0.9979310631752014,-1],"max":[0.9979310631752014,0.9979310631752014,1]},{"bufferView":25,"byteOffset":0,"componentType":5126,"count":384,"type":"VEC2","min":[0,0],"max":[1,1]},{"bufferView":26,"byteOffset":0,"componentType":5125,"count":264,"type":"SCALAR","min":[0],"max":[131]},{"bufferView":27,"byteOffset":0,"componentType":5126,"count":132,"type":"VEC3","min":[0,-122.87999725341797,0],"max":[108.36000061035156,0,25]},{"bufferView":28,"byteOffset":0,"componentType":5126,"count":132,"type":"VEC3","min":[-0.9960489273071289,-1,-1],"max":[0.9960645437240601,1,1]},{"bufferView":29,"byteOffset":0,"componentType":5126,"count":132,"type":"VEC2","min":[0,0],"max":[1,1]},{"bufferView":30,"byteOffset":0,"componentType":5125,"count":1344,"type":"SCALAR","min":[0],"max":[565]},{"bufferView":31,"byteOffset":0,"componentType":5126,"count":566,"type":"VEC3","min":[6.953999996185303,0,0],"max":[47.48099899291992,56.25899887084961,38]},{"bufferView":32,"byteOffset":0,"componentType":5126,"count":566,"type":"VEC3","min":[-1,-1,-1],"max":[1,1,1]},{"bufferView":33,"byteOffset":0,"componentType":5126,"count":566,"type":"VEC2","min":[0,0],"max":[1,1]},{"bufferView":34,"byteOffset":0,"componentType":5125,"count":3780,"type":"SCALAR","min":[0],"max":[1271]},{"bufferView":35,"byteOffset":0,"componentType":5126,"count":1272,"type":"VEC3","min":[4.211591720581055,-0.7979999780654907,0],"max":[37.44900131225586,42.57899856567383,38]},{"bufferView":36,"byteOffset":0,"componentType":5126,"count":1272,"type":"VEC3","min":[-0.9999698400497437,-1,-1],"max":[0.999950647354126,1,1]},{"bufferView":37,"byteOffset":0,"componentType":5126,"count":1272,"type":"VEC2","min":[0,0],"max":[1,1]},{"bufferView":38,"byteOffset":0,"componentType":5125,"count":1956,"type":"SCALAR","min":[0],"max":[655]},{"bufferView":39,"byteOffset":0,"componentType":5126,"count":656,"type":"VEC3","min":[-62.5,-63.5,0],"max":[62.5,63.5,26]},{"bufferView":40,"byteOffset":0,"componentType":5126,"count":656,"type":"VEC3","min":[-1,-1,-1],"max":[1,1,1]},{"bufferView":41,"byteOffset":0,"componentType":5126,"count":656,"type":"VEC2","min":[0,0],"max":[1,1]},{"bufferView":42,"byteOffset":0,"componentType":5125,"count":3216,"type":"SCALAR","min":[0],"max":[1077]},{"bufferView":43,"byteOffset":0,"componentType":5126,"count":1078,"type":"VEC3","min":[0,-285.68115234375,0],"max":[256,2.7826075553894043,25]},{"bufferView":44,"byteOffset":0,"componentType":5126,"count":1078,"type":"VEC3","min":[-1,-0.9999967217445374,-1],"max":[1,1,1]},{"bufferView":45,"byteOffset":0,"componentType":5126,"count":1078,"type":"VEC2","min":[0,0],"max":[1,1]},{"bufferView":46,"byteOffset":0,"componentType":5125,"count":2460,"type":"SCALAR","min":[0],"max":[825]},{"bufferView":47,"byteOffset":0,"componentType":5126,"count":826,"type":"VEC3","min":[0,-117.66459655761719,0],"max":[108.91925811767578,0,25]},{"bufferView":48,"byteOffset":0,"componentType":5126,"count":826,"type":"VEC3","min":[-0.9990813732147217,-1,-1],"max":[0.999614417552948,1,1]},{"bufferView":49,"byteOffset":0,"componentType":5126,"count":826,"type":"VEC2","min":[0,0],"max":[1,1]}],"extensions":{"KHR_lights_punctual":{"lights":[{"type":"directional","name":"Directional Light 3","color":[0.8431372549019608,0.6588235294117647,0.43137254901960786],"intensity":1.41}]}},"extensionsUsed":["KHR_lights_punctual"]}