{"asset":{"generator":"Khronos glTF Spline I/O v0.0.1","version":"2.0"},"scenes":[{"nodes":[0]}],"nodes":[{"name":"","children":[1,2,3,4,5,6,7,8,9,10,11]},{"name":"Boolean 2","matrix":[0.6950925317538476,0,0,0,0,0.6668632804437751,0,0,0,0,0.6986027624955125,0,19.625888291733894,18.267819691694893,-18.0316083332335,1],"mesh":0,"children":[12,13,14]},{"name":"tailwind","matrix":[0.992682022988136,0,0.12075761357437781,0,0,1,0,0,-0.12075761357437781,0,0.992682022988136,0,-17.95865455358816,-23.489146394277338,12.556164906972146,1],"mesh":1,"children":[15,16]},{"name":"react","matrix":[1,0,0,0,0,1,0,0,0,0,1,0,-1.9792892348955995,-13.453494353101805,0.005,1],"mesh":2,"children":[17,18]},{"name":"Boolean","matrix":[0.9253421412403867,0,-0.3791331186333561,0,0,1,0,0,0.3791331186333561,0,0.9253421412403867,0,0.3606140720268374,10.9969418647217,-3.5729098864858684,1],"mesh":3,"children":[19,20]},{"name":"html","matrix":[0.05405036497080628,0.00028254729784280095,0.024051812339201357,0,-0.0007764721421818941,0.06070180216389543,-0.0014237989896693519,0,-0.024055663645708648,-0.001516560840573724,0.050414073961413175,0,-31.060057365691797,24.860445566942513,-7.981464114374592,0.9999999999999999],"mesh":4},{"name":"git","matrix":[1.4991525111738497,0,-0.05041575389839856,0,0,1.5,0,0,0.05041575389839856,0,1.4991525111738497,0,14.572676940507659,-13.495838412157113,-0.10220423946230106,1],"mesh":5},{"name":"css","matrix":[2.729501067671664,0,1.6856208967384203,0,0,1,0,0,-0.5254370543577555,0,0.8508324758187358,0,17.96342337112606,8.780000335693359,-2.312602231814174,1],"mesh":6},{"name":"adobe","matrix":[0.7594730630359564,0,-0.650538750977051,0,0,1,0,0,0.650538750977051,0,0.7594730630359564,0,-30.91262281808497,-5.2074560581223,20.161473867838886,1],"mesh":7,"children":[21,22]},{"name":"Camera","camera":0,"translation":[0.48851470581053213,-7.132314704833818,104.67395472325516],"rotation":[-2.9698165863411316e-17,0,0,1]},{"name":"Spot Light","translation":[-3.0190211969809013,94.1840890931298,247.6289488945461],"rotation":[0.5899834346066172,0,0,0.8074153496743665],"extensions":{"KHR_lights_punctual":{"light":0}}},{"name":"Personal Camera","camera":1,"translation":[0,-4.973799150320701e-14,94.46824413773778],"rotation":[-3.061616997868383e-17,0,0,1]},{"name":"Shape 0","matrix":[1,0,0,0,0,1,0,0,0,0,1,0,-10.743070784956217,10.985051646828651,-0.01,1],"mesh":8},{"name":"Shape 0","matrix":[1,0,0,0,0,1,0,0,0,0,1,0,5.226929215043789,4.634051646828652,0,1],"mesh":9},{"name":"Shape 0","matrix":[1,0,0,0,0,1,0,0,0,0,1,0,-2.3840707849562097,4.531051646828653,0.01,1],"mesh":10},{"name":"tw_0","matrix":[1,0,0,0,0,1,0,0,0,0,1,0,-3.986920024689108,5.000000006790161,-0.005,1],"mesh":11},{"name":"tw_1","matrix":[1,0,0,0,0,1,0,0,0,0,1,0,-7.486923524689108,0.5000100067901609,0.005,1],"mesh":12},{"name":"react_0","matrix":[1,0,0,0,0,1,0,0,0,0,1,0,-14,12.640625172760338,-0.005,1],"mesh":13},{"name":"react_1","matrix":[1,0,0,0,0,1,0,0,0,0,1,0,-3,3.0000001727603376,0.005,1],"mesh":14},{"name":"nodejs_0","matrix":[0.07916558870385751,0,0,0,0,0.0764467435864801,0,0,0,0,0.08,0,-10.133195354093761,10.813336257212079,-0.00039999999999906777,1],"mesh":15},{"name":"nodejs_1","matrix":[0.07916558870385751,0,0,0,0,0.0764467435864801,0,0,0,0,0.08,0,-1.846213648425273,4.391176619678251,0.00039999999999906777,1],"mesh":16},{"name":"Shape 0","matrix":[1,0,0,0,0,1,0,0,0,0,1,0,-3.707499931335449,3.7525000762939476,-0.005,1],"mesh":17},{"name":"Shape 1","matrix":[1,0,0,0,0,1,0,0,0,0,1,0,-8.73449993133545,8.732500076293947,0.005,1],"mesh":18}],"cameras":[{"type":"perspective","perspective":{"aspectRatio":1.920099875156055,"yfov":0.7853981633974483,"znear":5,"zfar":100000}},{"type":"perspective","perspective":{"aspectRatio":1.920099875156055,"yfov":0.7853981633974483,"znear":5,"zfar":100000}}],"meshes":[{"primitives":[{"attributes":{"POSITION":0,"NORMAL":1}}]},{"primitives":[{"attributes":{"POSITION":2,"NORMAL":3}}]},{"primitives":[{"attributes":{"POSITION":4,"NORMAL":5}}]},{"primitives":[{"attributes":{"POSITION":6,"NORMAL":7}}]},{"primitives":[{"attributes":{"POSITION":9,"NORMAL":10,"TEXCOORD_0":11},"indices":8}]},{"primitives":[{"attributes":{"POSITION":13,"NORMAL":14,"TEXCOORD_0":15},"indices":12}]},{"primitives":[{"attributes":{"POSITION":17,"NORMAL":18,"TEXCOORD_0":19},"indices":16}]},{"primitives":[{"attributes":{"POSITION":20,"NORMAL":21}}]},{"primitives":[{"attributes":{"POSITION":23,"NORMAL":24,"TEXCOORD_0":25},"indices":22}]},{"primitives":[{"attributes":{"POSITION":27,"NORMAL":28,"TEXCOORD_0":29},"indices":26}]},{"primitives":[{"attributes":{"POSITION":31,"NORMAL":32,"TEXCOORD_0":33},"indices":30}]},{"primitives":[{"attributes":{"POSITION":35,"NORMAL":36,"TEXCOORD_0":37},"indices":34}]},{"primitives":[{"attributes":{"POSITION":39,"NORMAL":40,"TEXCOORD_0":41},"indices":38}]},{"primitives":[{"attributes":{"POSITION":43,"NORMAL":44,"TEXCOORD_0":45},"indices":42}]},{"primitives":[{"attributes":{"POSITION":47,"NORMAL":48,"TEXCOORD_0":49},"indices":46}]},{"primitives":[{"attributes":{"POSITION":51,"NORMAL":52,"TEXCOORD_0":53},"indices":50}]},{"primitives":[{"attributes":{"POSITION":55,"NORMAL":56,"TEXCOORD_0":57},"indices":54}]},{"primitives":[{"attributes":{"POSITION":59,"NORMAL":60,"TEXCOORD_0":61},"indices":58}]},{"primitives":[{"attributes":{"POSITION":63,"NORMAL":64,"TEXCOORD_0":65},"indices":62}]}],"buffers":[{"uri":"data:application/octet-stream;base64,","byteLength":338976},{"uri":"data:application/octet-stream;base64,","byteLength":124992},{"uri":"data:application/octet-stream;base64,","byteLength":414720},{"uri":"data:application/octet-stream;base64,","byteLength":136224},{"uri":"data:application/octet-stream;base64,","byteLength":213408},{"uri":"data:application/octet-stream;base64,","byteLength":105504},{"uri":"data:application/octet-stream;base64,","byteLength":13104},{"uri":"data:application/octet-stream;base64,","byteLength":92736},{"uri":"data:application/octet-stream;base64,","byteLength":481776},{"uri":"data:application/octet-stream;base64,","byteLength":11136},{"uri":"data:application/octet-stream;base64,","byteLength":16320},{"uri":"data:application/octet-stream;base64,","byteLength":94128},{"uri":"data:application/octet-stream;base64,","byteLength":94128},{"uri":"data:application/octet-stream;base64,","byteLength":577152},{"uri":"data:application/octet-stream;base64,","byteLength":41472},{"uri":"data:application/octet-stream;base64,","byteLength":116352},{"uri":"data:application/octet-stream;base64,","byteLength":89136},{"uri":"data:application/octet-stream;base64,","byteLength":21504},{"uri":"data:application/octet-stream;base64,","byteLength":117984}],"bufferViews":[{"buffer":0,"byteOffset":0,"byteLength":169488,"target":34962},{"buffer":0,"byteOffset":169488,"byteLength":169488,"target":34962},{"buffer":1,"byteOffset":0,"byteLength":62496,"target":34962},{"buffer":1,"byteOffset":62496,"byteLength":62496,"target":34962},{"buffer":2,"byteOffset":0,"byteLength":207360,"target":34962},{"buffer":2,"byteOffset":207360,"byteLength":207360,"target":34962},{"buffer":3,"byteOffset":0,"byteLength":68112,"target":34962},{"buffer":3,"byteOffset":68112,"byteLength":68112,"target":34962},{"buffer":4,"byteOffset":0,"byteLength":23712,"target":34963},{"buffer":4,"byteOffset":23712,"byteLength":63232,"target":34962},{"buffer":4,"byteOffset":86944,"byteLength":63232,"target":34962},{"buffer":4,"byteOffset":150176,"byteLength":63232,"target":34962},{"buffer":5,"byteOffset":0,"byteLength":11424,"target":34963},{"buffer":5,"byteOffset":11424,"byteLength":31360,"target":34962},{"buffer":5,"byteOffset":42784,"byteLength":31360,"target":34962},{"buffer":5,"byteOffset":74144,"byteLength":31360,"target":34962},{"buffer":6,"byteOffset":0,"byteLength":1008,"target":34963},{"buffer":6,"byteOffset":1008,"byteLength":4032,"target":34962},{"buffer":6,"byteOffset":5040,"byteLength":4032,"target":34962},{"buffer":6,"byteOffset":9072,"byteLength":4032,"target":34962},{"buffer":7,"byteOffset":0,"byteLength":46368,"target":34962},{"buffer":7,"byteOffset":46368,"byteLength":46368,"target":34962},{"buffer":8,"byteOffset":0,"byteLength":53616,"target":34963},{"buffer":8,"byteOffset":53616,"byteLength":142720,"target":34962},{"buffer":8,"byteOffset":196336,"byteLength":142720,"target":34962},{"buffer":8,"byteOffset":339056,"byteLength":142720,"target":34962},{"buffer":9,"byteOffset":0,"byteLength":1152,"target":34963},{"buffer":9,"byteOffset":1152,"byteLength":3328,"target":34962},{"buffer":9,"byteOffset":4480,"byteLength":3328,"target":34962},{"buffer":9,"byteOffset":7808,"byteLength":3328,"target":34962},{"buffer":10,"byteOffset":0,"byteLength":1728,"target":34963},{"buffer":10,"byteOffset":1728,"byteLength":4864,"target":34962},{"buffer":10,"byteOffset":6592,"byteLength":4864,"target":34962},{"buffer":10,"byteOffset":11456,"byteLength":4864,"target":34962},{"buffer":11,"byteOffset":0,"byteLength":10416,"target":34963},{"buffer":11,"byteOffset":10416,"byteLength":27904,"target":34962},{"buffer":11,"byteOffset":38320,"byteLength":27904,"target":34962},{"buffer":11,"byteOffset":66224,"byteLength":27904,"target":34962},{"buffer":12,"byteOffset":0,"byteLength":10416,"target":34963},{"buffer":12,"byteOffset":10416,"byteLength":27904,"target":34962},{"buffer":12,"byteOffset":38320,"byteLength":27904,"target":34962},{"buffer":12,"byteOffset":66224,"byteLength":27904,"target":34962},{"buffer":13,"byteOffset":0,"byteLength":64512,"target":34963},{"buffer":13,"byteOffset":64512,"byteLength":170880,"target":34962},{"buffer":13,"byteOffset":235392,"byteLength":170880,"target":34962},{"buffer":13,"byteOffset":406272,"byteLength":170880,"target":34962},{"buffer":14,"byteOffset":0,"byteLength":4608,"target":34963},{"buffer":14,"byteOffset":4608,"byteLength":12288,"target":34962},{"buffer":14,"byteOffset":16896,"byteLength":12288,"target":34962},{"buffer":14,"byteOffset":29184,"byteLength":12288,"target":34962},{"buffer":15,"byteOffset":0,"byteLength":12864,"target":34963},{"buffer":15,"byteOffset":12864,"byteLength":34496,"target":34962},{"buffer":15,"byteOffset":47360,"byteLength":34496,"target":34962},{"buffer":15,"byteOffset":81856,"byteLength":34496,"target":34962},{"buffer":16,"byteOffset":0,"byteLength":9840,"target":34963},{"buffer":16,"byteOffset":9840,"byteLength":26432,"target":34962},{"buffer":16,"byteOffset":36272,"byteLength":26432,"target":34962},{"buffer":16,"byteOffset":62704,"byteLength":26432,"target":34962},{"buffer":17,"byteOffset":0,"byteLength":2304,"target":34963},{"buffer":17,"byteOffset":2304,"byteLength":6400,"target":34962},{"buffer":17,"byteOffset":8704,"byteLength":6400,"target":34962},{"buffer":17,"byteOffset":15104,"byteLength":6400,"target":34962},{"buffer":18,"byteOffset":0,"byteLength":13152,"target":34963},{"buffer":18,"byteOffset":13152,"byteLength":34944,"target":34962},{"buffer":18,"byteOffset":48096,"byteLength":34944,"target":34962},{"buffer":18,"byteOffset":83040,"byteLength":34944,"target":34962}],"accessors":[{"bufferView":0,"byteOffset":0,"componentType":5126,"count":14124,"type":"VEC3","min":[-10.78993034362793,-11.246683120727539,-0.009999999776482582],"max":[10.78993034362793,11.246684074401855,10.010000228881836]},{"bufferView":1,"byteOffset":0,"componentType":5126,"count":14124,"type":"VEC3","min":[-1,-0.9999997019767761,-1],"max":[1,0.9999999403953552,1]},{"bufferView":2,"byteOffset":0,"componentType":5126,"count":5208,"type":"VEC3","min":[-7.5000529289245605,-5,-0.004999999888241291],"max":[7.500052452087402,5,3.005000114440918]},{"bufferView":3,"byteOffset":0,"componentType":5126,"count":5208,"type":"VEC3","min":[-0.9999873042106628,-0.9999995827674866,-1],"max":[0.9999867081642151,0.9999995827674866,1]},{"bufferView":4,"byteOffset":0,"componentType":5126,"count":17280,"type":"VEC3","min":[-14,-12.65151596069336,-0.004999999888241291],"max":[14,12.65151596069336,5.005000114440918]},{"bufferView":5,"byteOffset":0,"componentType":5126,"count":17280,"type":"VEC3","min":[-1,-1,-1],"max":[1,1,1]},{"bufferView":6,"byteOffset":0,"componentType":5126,"count":5676,"type":"VEC3","min":[-10.133194923400879,-11.026057243347168,-0.00039999998989515007],"max":[10.133194923400879,11.026057243347168,2.400399923324585]},{"bufferView":7,"byteOffset":0,"componentType":5126,"count":5676,"type":"VEC3","min":[-0.9999985098838806,-0.9999999403953552,-1],"max":[0.9999979138374329,1,1]},{"bufferView":8,"byteOffset":0,"componentType":5125,"count":5928,"type":"SCALAR","min":[0],"max":[1975]},{"bufferView":9,"byteOffset":0,"componentType":5126,"count":1976,"type":"VEC3","min":[-0.014150463044643402,-299.2132568359375,0],"max":[263.6445617675781,0,50]},{"bufferView":10,"byteOffset":0,"componentType":5126,"count":1976,"type":"VEC3","min":[-0.9999173283576965,-1,-1],"max":[0.9999217391014099,1,1]},{"bufferView":11,"byteOffset":0,"componentType":5126,"count":1976,"type":"VEC2","min":[0,0],"max":[1,1]},{"bufferView":12,"byteOffset":0,"componentType":5125,"count":2856,"type":"SCALAR","min":[0],"max":[979]},{"bufferView":13,"byteOffset":0,"componentType":5126,"count":980,"type":"VEC3","min":[-0.4650228023529053,-14.534977912902832,0],"max":[14.534976959228516,0.4650220572948456,3]},{"bufferView":14,"byteOffset":0,"componentType":5126,"count":980,"type":"VEC3","min":[-1,-0.9998222589492798,-1],"max":[1,0.9979760646820068,1]},{"bufferView":15,"byteOffset":0,"componentType":5126,"count":980,"type":"VEC2","min":[0,0],"max":[1,1]},{"bufferView":16,"byteOffset":0,"componentType":5125,"count":252,"type":"SCALAR","min":[0],"max":[125]},{"bufferView":17,"byteOffset":0,"componentType":5126,"count":126,"type":"VEC3","min":[0,-20,0],"max":[5,0,5]},{"bufferView":18,"byteOffset":0,"componentType":5126,"count":126,"type":"VEC3","min":[-0.9996790885925293,-1,-1],"max":[0.9997683763504028,1,1]},{"bufferView":19,"byteOffset":0,"componentType":5126,"count":126,"type":"VEC2","min":[0,0],"max":[1,1]},{"bufferView":20,"byteOffset":0,"componentType":5126,"count":3864,"type":"VEC3","min":[-8.73449993133545,-8.732500076293945,-0.004999999888241291],"max":[8.73449993133545,8.732500076293945,10.005000114440918]},{"bufferView":21,"byteOffset":0,"componentType":5126,"count":3864,"type":"VEC3","min":[-1,-0.9999969601631165,-1],"max":[1,1,1]},{"bufferView":22,"byteOffset":0,"componentType":5125,"count":13404,"type":"SCALAR","min":[0],"max":[4459]},{"bufferView":23,"byteOffset":0,"componentType":5126,"count":4460,"type":"VEC3","min":[-0.04685937613248825,-22.231735229492188,0],"max":[21.533000946044922,0.26163193583488464,10]},{"bufferView":24,"byteOffset":0,"componentType":5126,"count":4460,"type":"VEC3","min":[-0.9999998807907104,-0.9999999403953552,-1],"max":[0.9999974966049194,0.999988317489624,1]},{"bufferView":25,"byteOffset":0,"componentType":5126,"count":4460,"type":"VEC2","min":[0,0],"max":[1,1]},{"bufferView":26,"byteOffset":0,"componentType":5125,"count":288,"type":"SCALAR","min":[0],"max":[103]},{"bufferView":27,"byteOffset":0,"componentType":5126,"count":104,"type":"VEC3","min":[-0.0709218755364418,-0.5851406455039978,0],"max":[1.0640000104904175,0,10]},{"bufferView":28,"byteOffset":0,"componentType":5126,"count":104,"type":"VEC3","min":[-0.9998651742935181,-0.9989945292472839,-1],"max":[0.9922112226486206,0.9973916411399841,1]},{"bufferView":29,"byteOffset":0,"componentType":5126,"count":104,"type":"VEC2","min":[0,0],"max":[1,1]},{"bufferView":30,"byteOffset":0,"componentType":5125,"count":432,"type":"SCALAR","min":[0],"max":[151]},{"bufferView":31,"byteOffset":0,"componentType":5126,"count":152,"type":"VEC3","min":[-0.00264004641212523,-0.6539999842643738,0],"max":[1.23203706741333,0.041999999433755875,10]},{"bufferView":32,"byteOffset":0,"componentType":5126,"count":152,"type":"VEC3","min":[-0.9967513680458069,-0.9225621223449707,-1],"max":[0.9986505508422852,0.999718427658081,1]},{"bufferView":33,"byteOffset":0,"componentType":5126,"count":152,"type":"VEC2","min":[0,0],"max":[1,1]},{"bufferView":34,"byteOffset":0,"componentType":5125,"count":2604,"type":"SCALAR","min":[0],"max":[871]},{"bufferView":35,"byteOffset":0,"componentType":5126,"count":872,"type":"VEC3","min":[-0.013131944462656975,-5.499989986419678,0],"max":[11.48697280883789,0,3]},{"bufferView":36,"byteOffset":0,"componentType":5126,"count":872,"type":"VEC3","min":[-0.9985931515693665,-0.9999182820320129,-1],"max":[0.9986004829406738,0.9999180436134338,1]},{"bufferView":37,"byteOffset":0,"componentType":5126,"count":872,"type":"VEC2","min":[0,0],"max":[1,1]},{"bufferView":38,"byteOffset":0,"componentType":5125,"count":2604,"type":"SCALAR","min":[0],"max":[871]},{"bufferView":39,"byteOffset":0,"componentType":5126,"count":872,"type":"VEC3","min":[-0.013129259459674358,-5.500010013580322,0],"max":[11.486976623535156,0,3]},{"bufferView":40,"byteOffset":0,"componentType":5126,"count":872,"type":"VEC3","min":[-0.9985937476158142,-0.9999173879623413,-1],"max":[0.9986005425453186,0.9999182820320129,1]},{"bufferView":41,"byteOffset":0,"componentType":5126,"count":872,"type":"VEC2","min":[0,0],"max":[1,1]},{"bufferView":42,"byteOffset":0,"componentType":5125,"count":16128,"type":"SCALAR","min":[0],"max":[5339]},{"bufferView":43,"byteOffset":0,"componentType":5126,"count":5340,"type":"VEC3","min":[0,-25.29214096069336,0],"max":[28,0.010890615172684193,5]},{"bufferView":44,"byteOffset":0,"componentType":5126,"count":5340,"type":"VEC3","min":[-0.9999997615814209,-0.9999967813491821,-1],"max":[0.9999997615814209,0.9999967813491821,1]},{"bufferView":45,"byteOffset":0,"componentType":5126,"count":5340,"type":"VEC2","min":[0,0],"max":[1,1]},{"bufferView":46,"byteOffset":0,"componentType":5125,"count":1152,"type":"SCALAR","min":[0],"max":[383]},{"bufferView":47,"byteOffset":0,"componentType":5126,"count":384,"type":"VEC3","min":[0,-6,0],"max":[6,0,5]},{"bufferView":48,"byteOffset":0,"componentType":5126,"count":384,"type":"VEC3","min":[-0.9979310631752014,-0.9979310631752014,-1],"max":[0.9979310631752014,0.9979310631752014,1]},{"bufferView":49,"byteOffset":0,"componentType":5126,"count":384,"type":"VEC2","min":[0,0],"max":[1,1]},{"bufferView":50,"byteOffset":0,"componentType":5125,"count":3216,"type":"SCALAR","min":[0],"max":[1077]},{"bufferView":51,"byteOffset":0,"componentType":5126,"count":1078,"type":"VEC3","min":[0,-285.68115234375,0],"max":[256,2.7826075553894043,30]},{"bufferView":52,"byteOffset":0,"componentType":5126,"count":1078,"type":"VEC3","min":[-1,-0.9999967217445374,-1],"max":[1,1,1]},{"bufferView":53,"byteOffset":0,"componentType":5126,"count":1078,"type":"VEC2","min":[0,0],"max":[1,1]},{"bufferView":54,"byteOffset":0,"componentType":5125,"count":2460,"type":"SCALAR","min":[0],"max":[825]},{"bufferView":55,"byteOffset":0,"componentType":5126,"count":826,"type":"VEC3","min":[0,-117.66459655761719,0],"max":[108.91925811767578,0,30]},{"bufferView":56,"byteOffset":0,"componentType":5126,"count":826,"type":"VEC3","min":[-0.9990813732147217,-1,-1],"max":[0.999614417552948,1,1]},{"bufferView":57,"byteOffset":0,"componentType":5126,"count":826,"type":"VEC2","min":[0,0],"max":[1,1]},{"bufferView":58,"byteOffset":0,"componentType":5125,"count":576,"type":"SCALAR","min":[0],"max":[199]},{"bufferView":59,"byteOffset":0,"componentType":5126,"count":200,"type":"VEC3","min":[0,-2.9839999675750732,0],"max":[2.5980000495910645,0,10]},{"bufferView":60,"byteOffset":0,"componentType":5126,"count":200,"type":"VEC3","min":[-1,-0.9999923706054688,-1],"max":[0.9981687664985657,0.9999671578407288,1]},{"bufferView":61,"byteOffset":0,"componentType":5126,"count":200,"type":"VEC2","min":[0,0],"max":[1,1]},{"bufferView":62,"byteOffset":0,"componentType":5125,"count":3288,"type":"SCALAR","min":[0],"max":[1091]},{"bufferView":63,"byteOffset":0,"componentType":5126,"count":1092,"type":"VEC3","min":[0,-17.46500015258789,0],"max":[17.4689998626709,0,10]},{"bufferView":64,"byteOffset":0,"componentType":5126,"count":1092,"type":"VEC3","min":[-1,-1,-1],"max":[1,1,1]},{"bufferView":65,"byteOffset":0,"componentType":5126,"count":1092,"type":"VEC2","min":[0,0],"max":[1,1]}],"extensions":{"KHR_lights_punctual":{"lights":[{"type":"spot","name":"Spot Light","color":[1,1,1],"intensity":1,"range":2000,"spot":{"innerConeAngle":0.5235987755982988,"outerConeAngle":0.5235987755982988}}]}},"extensionsUsed":["KHR_lights_punctual"]}