<?xml version="1.0" encoding="UTF-8"?>
<svg xmlns="http://www.w3.org/2000/svg" xmlns:xlink="http://www.w3.org/1999/xlink" viewBox="0 0 100 100" width="100px" height="100px">
<g id="surface245630399">
<path style=" stroke:none;fill-rule:nonzero;fill:rgb(46.666667%,46.666667%,46.666667%);fill-opacity:1;" d="M 93.585938 44.179688 L 55.820312 6.414062 C 54.21875 4.804688 52.109375 4 50 4 C 47.890625 4 45.78125 4.804688 44.179688 6.414062 L 36.710938 13.882812 L 45.953125 23.125 C 49.023438 21.320312 53.023438 21.710938 55.65625 24.34375 C 58.289062 26.976562 58.671875 30.976562 56.867188 34.039062 L 65.953125 43.125 C 69.023438 41.320312 73.023438 41.710938 75.65625 44.34375 C 78.78125 47.46875 78.78125 52.53125 75.65625 55.65625 C 72.53125 58.78125 67.46875 58.78125 64.34375 55.65625 C 61.710938 53.023438 61.320312 49.023438 63.125 45.953125 L 54.039062 36.867188 C 53.390625 37.25 52.710938 37.53125 52 37.710938 L 52 62.28125 C 55.445312 63.171875 58 66.273438 58 70 C 58 74.421875 54.421875 78 50 78 C 45.578125 78 42 74.421875 42 70 C 42 66.273438 44.554688 63.171875 48 62.28125 L 48 37.710938 C 46.664062 37.367188 45.390625 36.703125 44.34375 35.65625 C 41.710938 33.023438 41.328125 29.023438 43.132812 25.960938 L 33.882812 16.710938 L 6.414062 44.179688 C 3.195312 47.390625 3.195312 52.609375 6.414062 55.820312 L 44.179688 93.585938 C 45.78125 95.195312 47.890625 96 50 96 C 52.109375 96 54.21875 95.195312 55.820312 93.585938 L 93.585938 55.820312 C 96.804688 52.609375 96.804688 47.390625 93.585938 44.179688 Z M 93.585938 44.179688 "/>
</g>
</svg>
