<?xml version="1.0" encoding="UTF-8"?>
<svg xmlns="http://www.w3.org/2000/svg" xmlns:xlink="http://www.w3.org/1999/xlink" viewBox="0 0 100 100" width="100px" height="100px">
<g id="surface14320403">
<path style=" stroke:none;fill-rule:nonzero;fill:rgb(46.666667%,46.666667%,46.666667%);fill-opacity:1;" d="M 49 4 C 31.601562 4 28 12.984375 28 18.1875 L 28 28 L 48 28 L 48 30 L 18.1875 30 C 11.585938 30 4 35.203125 4 50 C 4 64.796875 11.585938 70 18.1875 70 L 30 70 L 30 58 C 30 53.601562 33.601562 50 38 50 L 62 50 C 65.398438 50 68 47.398438 68 44 L 68 18.1875 C 68 11.1875 61.398438 4 49 4 Z M 40 14 C 42.203125 14 44 15.796875 44 18 C 44 20.203125 42.203125 22 40 22 C 37.796875 22 36 20.203125 36 18 C 36 15.796875 37.796875 14 40 14 Z M 70 30 L 70 44 C 70 48.398438 66.398438 52 62 52 L 38 52 C 34.601562 52 32 54.601562 32 58 L 32 81.8125 C 32 88.8125 38.601562 96 51 96 C 68.398438 96 72 87.015625 72 81.8125 L 72 72 L 52 72 L 52 70 L 81.8125 70 C 88.414062 70 96 64.796875 96 50 C 96 35.203125 88.414062 30 81.8125 30 Z M 60 78 C 62.203125 78 64 79.796875 64 82 C 64 84.203125 62.203125 86 60 86 C 57.796875 86 56 84.203125 56 82 C 56 79.796875 57.796875 78 60 78 Z M 60 78 "/>
</g>
</svg>
