<?xml version="1.0" encoding="UTF-8"?>
<svg xmlns="http://www.w3.org/2000/svg" xmlns:xlink="http://www.w3.org/1999/xlink" viewBox="0 0 60 60" width="60px" height="60px">
<g id="surface245632571">
<path style=" stroke:none;fill-rule:nonzero;fill:rgb(46.666667%,46.666667%,46.666667%);fill-opacity:1;" d="M 12 8 C 9.789062 8 8 9.789062 8 12 L 8 48 C 8 50.210938 9.789062 52 12 52 L 48 52 C 50.210938 52 52 50.210938 52 48 L 52 12 C 52 9.789062 50.210938 8 48 8 Z M 16 19.984375 L 23.957031 19.984375 C 27.894531 19.984375 30.589844 22.679688 30.589844 26.65625 C 30.589844 30.566406 27.796875 33.246094 23.804688 33.246094 L 19.527344 33.246094 L 19.527344 39.714844 L 16 39.714844 Z M 19.527344 22.9375 L 19.527344 30.320312 L 23.015625 30.320312 C 25.53125 30.320312 27.007812 29.007812 27.007812 26.65625 C 27.007812 24.238281 25.570312 22.9375 23.027344 22.9375 Z M 38.414062 24.453125 C 41.96875 24.453125 44.199219 26.027344 44.445312 28.746094 L 41.261719 28.746094 C 41.015625 27.695312 40.015625 27.023438 38.429688 27.023438 C 36.886719 27.023438 35.722656 27.765625 35.722656 28.84375 C 35.722656 29.691406 36.433594 30.210938 37.9375 30.550781 L 40.574219 31.152344 C 43.433594 31.792969 44.757812 33.027344 44.757812 35.226562 C 44.757812 38.101562 42.117188 40.015625 38.386719 40.015625 C 34.65625 40.015625 32.304688 38.398438 32.042969 35.679688 L 35.394531 35.679688 C 35.722656 36.789062 36.773438 37.445312 38.46875 37.445312 C 40.175781 37.445312 41.367188 36.695312 41.367188 35.585938 C 41.367188 34.738281 40.726562 34.203125 39.304688 33.886719 L 36.652344 33.273438 C 33.78125 32.617188 32.429688 31.292969 32.429688 29.035156 C 32.429688 26.328125 34.886719 24.453125 38.414062 24.453125 Z M 38.414062 24.453125 "/>
</g>
</svg>
