<?xml version="1.0" encoding="UTF-8"?>
<svg xmlns="http://www.w3.org/2000/svg" xmlns:xlink="http://www.w3.org/1999/xlink" viewBox="0 0 128 128" width="128px" height="128px">
<g id="surface249340880">
<path style=" stroke:none;fill-rule:nonzero;fill:rgb(46.666667%,46.666667%,46.666667%);fill-opacity:1;" d="M 124 1 C 123.234375 1 122.464844 1.296875 121.882812 1.878906 L 61.882812 61.878906 C 60.710938 63.050781 60.710938 64.949219 61.882812 66.117188 C 62.460938 66.710938 63.230469 67 64 67 C 64.769531 67 65.539062 66.710938 66.121094 66.117188 L 126.121094 6.117188 C 127.289062 4.949219 127.289062 3.050781 126.121094 1.878906 C 125.535156 1.296875 124.765625 1 124 1 Z M 34 11 C 21.320312 11 11 21.320312 11 34 L 11 94 C 11 106.679688 21.320312 117 34 117 L 94 117 C 106.679688 117 117 106.679688 117 94 L 117 44 C 117 42.339844 115.660156 41 114 41 C 112.339844 41 111 42.339844 111 44 L 111 94 C 111 103.371094 103.371094 111 94 111 L 34 111 C 24.628906 111 17 103.371094 17 94 L 17 34 C 17 24.628906 24.628906 17 34 17 L 84 17 C 85.660156 17 87 15.660156 87 14 C 87 12.339844 85.660156 11 84 11 Z M 34 11 "/>
</g>
</svg>
