<?xml version="1.0" encoding="utf-8" ?>
<svg baseProfile="tiny" height="100%" version="1.2" width="100%" xmlns="http://www.w3.org/2000/svg" xmlns:ev="http://www.w3.org/2001/xml-events" xmlns:xlink="http://www.w3.org/1999/xlink"><defs /><path d="M 176,602 176,606 Z" fill="none" stroke="black" stroke-width="1" /><path d="M 178,574 178,575 Z" fill="none" stroke="black" stroke-width="1" /><path d="M 660,568 659,569 659,572 660,573 660,576 659,577 659,673 658,674 658,676 657,677 657,679 655,681 655,682 653,684 653,685 647,691 646,691 643,694 642,694 641,695 640,695 639,696 637,696 636,697 630,697 629,698 388,698 387,697 380,697 379,696 378,696 377,695 376,695 375,694 374,694 371,691 370,691 363,684 363,683 362,682 362,681 360,679 360,677 359,676 359,672 358,671 358,651 359,650 359,635 358,634 358,589 357,588 357,587 355,585 354,585 352,583 351,583 350,582 349,582 347,580 346,580 344,578 343,578 341,576 340,576 339,575 338,575 337,574 337,573 335,573 335,612 334,613 334,729 335,730 335,736 336,737 336,740 337,741 337,744 338,745 338,747 339,748 339,750 340,751 340,753 341,754 341,755 342,756 342,758 344,760 344,761 345,762 345,763 348,766 348,767 361,780 362,780 365,783 366,783 367,784 368,784 370,786 372,786 373,787 374,787 375,788 377,788 378,789 379,789 380,790 382,790 383,791 385,791 386,792 389,792 390,793 392,793 393,794 397,794 398,795 419,795 420,794 432,794 433,795 440,795 441,794 443,794 444,795 472,795 473,794 507,794 508,795 540,795 541,794 613,794 614,795 618,795 619,794 626,794 627,793 630,793 631,792 633,792 634,791 636,791 637,790 639,790 640,789 642,789 643,788 644,788 645,787 646,787 648,785 649,785 651,783 652,783 655,780 656,780 669,767 669,766 672,763 672,762 673,761 673,760 675,758 675,757 676,756 676,755 677,754 677,752 678,751 678,750 679,749 679,747 680,746 680,745 681,744 681,741 682,740 682,737 683,736 683,728 684,727 684,719 683,718 683,587 682,586 682,578 681,578 680,577 679,577 678,576 676,576 674,574 673,574 672,573 671,573 670,572 669,572 668,571 666,571 664,569 663,569 662,568 Z" fill="none" stroke="black" stroke-width="1" /><path d="M 192,531 192,533 191,534 192,533 Z" fill="none" stroke="black" stroke-width="1" /><path d="M 303,496 304,496 Z" fill="none" stroke="black" stroke-width="1" /><path d="M 272,489 271,490 265,490 264,491 260,491 259,492 256,492 255,493 253,493 252,494 250,494 249,495 248,495 247,496 246,496 245,497 243,497 242,498 241,498 240,499 239,499 238,500 237,500 236,501 235,501 233,503 232,503 231,504 230,504 228,506 227,506 226,507 225,507 223,509 222,509 220,511 219,511 215,515 214,515 195,534 194,534 191,537 190,537 188,539 188,540 185,543 185,544 184,545 184,546 183,547 183,548 182,549 182,551 181,552 181,553 180,554 180,555 179,556 179,569 178,570 179,569 180,570 179,569 179,557 180,556 180,554 181,553 181,552 182,551 182,550 183,549 183,547 185,545 185,544 188,541 188,540 191,537 192,537 195,534 196,534 215,515 216,515 220,511 221,511 223,509 224,509 226,507 227,507 228,506 229,506 231,504 232,504 233,503 234,503 236,501 237,501 238,500 239,500 240,499 241,499 243,497 245,497 246,496 247,496 248,495 249,495 250,494 252,494 253,493 255,493 256,492 259,492 260,491 264,491 265,490 271,490 272,489 298,489 299,490 302,490 303,491 305,491 306,492 307,492 308,493 307,494 306,494 307,494 308,495 307,494 308,493 310,493 311,494 312,494 313,495 315,495 316,496 315,497 316,496 317,496 318,497 319,497 321,499 320,500 316,500 315,499 313,499 312,498 292,498 291,499 280,499 279,500 273,500 272,501 268,501 267,502 263,502 262,503 259,503 258,504 256,504 255,505 253,505 252,506 250,506 249,507 248,507 247,508 245,508 244,509 243,509 242,510 241,510 240,511 239,511 237,513 236,513 235,514 234,514 232,516 231,516 229,518 228,518 226,520 225,520 224,521 223,521 222,522 221,522 219,524 218,524 214,528 213,528 210,531 209,531 201,539 201,540 196,545 196,546 195,547 195,548 194,549 194,550 192,552 192,553 191,554 191,555 190,556 190,557 189,558 189,559 187,561 187,562 186,563 186,564 184,566 184,567 183,568 183,569 182,570 182,571 181,572 181,574 180,575 180,577 179,578 179,580 178,581 178,586 177,587 177,599 177,587 178,586 178,581 179,580 179,578 180,577 180,576 181,575 181,573 182,572 182,571 183,570 183,569 184,568 184,567 186,565 186,564 187,563 187,562 189,560 189,559 190,558 190,557 191,556 191,555 192,554 192,553 194,551 194,550 195,549 195,548 196,547 196,546 201,541 201,540 210,531 211,531 214,528 215,528 219,524 220,524 222,522 223,522 224,521 225,521 226,520 227,520 229,518 230,518 232,516 233,516 235,514 236,514 237,513 238,513 240,511 241,511 242,510 243,510 245,508 247,508 248,507 249,507 250,506 252,506 253,505 255,505 256,504 258,504 259,503 262,503 263,502 267,502 268,501 272,501 273,500 279,500 280,499 291,499 292,498 312,498 313,499 315,499 316,500 320,500 321,499 323,499 324,500 325,500 326,501 326,502 327,502 325,500 324,500 323,499 322,499 320,497 319,497 318,496 317,496 316,495 314,495 313,494 311,494 310,493 309,493 308,492 306,492 305,491 303,491 302,490 299,490 298,489 Z" fill="none" stroke="black" stroke-width="1" /><path d="M 845,471 845,485 844,486 844,488 843,489 843,490 842,491 842,492 841,493 841,494 840,495 840,496 838,498 838,499 835,502 835,503 832,506 832,507 829,510 829,511 825,515 825,516 813,528 812,528 809,531 808,531 805,534 804,534 801,537 800,537 798,539 797,539 796,540 795,540 794,541 793,541 791,543 790,543 789,544 788,544 787,545 786,545 785,546 783,546 782,547 781,547 780,548 778,548 777,549 775,549 774,550 772,550 771,551 768,551 767,552 764,552 763,553 759,553 758,554 747,554 746,555 736,555 735,554 726,554 725,553 721,553 720,552 717,552 716,551 713,551 712,550 710,550 709,549 707,549 706,548 705,548 704,547 702,547 701,546 699,546 697,544 695,544 694,543 692,543 691,542 689,542 688,541 687,541 686,540 684,540 683,539 681,539 680,538 678,538 677,537 675,537 674,536 673,536 672,535 670,535 669,534 668,534 667,533 665,533 664,532 662,532 661,531 658,531 657,530 655,530 654,529 652,529 651,528 648,528 647,527 644,527 643,526 639,526 638,525 632,525 631,524 603,524 602,525 597,525 596,526 592,526 591,527 588,527 587,528 585,528 584,529 582,529 581,530 579,530 578,531 576,531 575,532 572,532 571,533 569,533 568,534 566,534 565,535 564,535 563,536 561,536 560,537 559,537 558,538 557,538 555,540 554,540 553,541 552,541 551,542 550,542 548,544 547,544 546,545 545,545 544,546 543,546 542,547 541,547 540,548 539,548 537,550 536,550 534,552 533,552 531,554 530,554 528,556 527,556 526,557 525,557 523,559 522,559 520,561 519,561 518,562 517,562 515,564 514,564 513,565 512,565 511,566 509,566 508,567 507,567 506,568 505,568 504,569 502,569 501,570 500,570 499,571 497,571 496,572 495,572 494,573 492,573 491,574 488,574 487,575 485,575 484,576 481,576 480,577 477,577 476,578 473,578 472,579 467,579 466,580 458,580 457,581 446,581 445,580 436,580 435,579 430,579 429,578 426,578 425,577 423,577 422,576 420,576 419,575 416,575 415,574 413,574 412,573 411,573 410,572 408,572 407,571 406,571 405,570 403,570 401,568 399,568 398,567 397,567 395,565 394,565 393,564 392,564 391,563 390,563 389,562 388,562 386,560 385,560 384,559 383,559 382,558 381,558 380,557 379,557 378,556 377,556 375,554 374,554 372,552 371,552 370,551 369,551 368,550 367,550 365,548 364,548 363,547 362,547 360,545 359,545 358,544 357,544 356,543 355,543 353,541 352,541 351,540 350,540 348,538 347,538 346,537 345,537 343,535 342,535 341,534 340,534 338,532 336,532 335,531 334,531 333,530 331,530 330,529 328,529 327,528 321,528 320,527 308,527 307,526 292,526 291,527 282,527 281,528 277,528 276,529 274,529 273,530 271,530 270,531 268,531 267,532 266,532 265,533 263,533 262,534 260,534 259,535 258,535 257,536 255,536 254,537 253,537 252,538 250,538 249,539 248,539 247,540 246,540 245,541 243,541 242,542 241,542 240,543 239,543 237,545 236,545 234,547 233,547 231,549 230,549 228,551 227,551 225,553 224,553 223,554 222,554 218,558 217,558 204,571 204,572 202,574 202,575 201,576 201,577 199,579 199,580 198,581 198,582 197,583 197,584 196,585 196,587 195,588 195,589 193,591 193,593 192,594 192,595 191,596 191,597 190,598 190,599 189,600 189,601 188,602 188,603 187,604 187,605 186,606 186,608 185,609 185,611 184,612 184,614 183,615 183,618 182,619 182,621 181,622 181,626 180,627 180,634 179,635 179,639 181,639 181,636 182,635 182,633 183,632 183,630 184,629 184,627 185,626 185,624 186,623 186,621 187,620 187,619 189,617 189,615 191,613 191,612 193,610 193,609 195,607 195,606 197,604 197,603 199,601 199,600 203,596 203,595 208,590 208,589 225,572 226,572 230,568 231,568 233,566 234,566 236,564 237,564 239,562 240,562 241,561 242,561 244,559 246,559 247,558 248,558 249,557 250,557 252,555 254,555 256,553 258,553 259,552 260,552 261,551 263,551 264,550 267,550 268,549 270,549 271,548 273,548 274,547 277,547 278,546 281,546 282,545 287,545 288,544 306,544 307,545 312,545 313,546 316,546 317,547 319,547 320,548 322,548 323,549 325,549 326,550 328,550 329,551 330,551 331,552 332,552 333,553 335,553 336,554 337,554 338,555 339,555 340,556 341,556 342,557 344,557 346,559 347,559 348,560 349,560 350,561 351,561 353,563 354,563 355,564 356,564 357,565 358,565 360,567 361,567 362,568 363,568 364,569 365,569 366,570 367,570 369,572 370,572 371,573 372,573 373,574 374,574 375,575 376,575 377,576 378,576 380,578 381,578 383,580 384,580 385,581 386,581 387,582 388,582 389,583 390,583 391,584 392,584 393,585 394,585 395,586 396,586 397,587 398,587 399,588 401,588 402,589 403,589 404,590 406,590 407,591 409,591 410,592 412,592 413,593 415,593 416,594 418,594 419,595 422,595 423,596 426,596 427,597 430,597 431,598 436,598 437,599 443,599 444,600 460,600 461,599 468,599 469,598 473,598 474,597 477,597 478,596 482,596 483,595 486,595 487,594 489,594 490,593 492,593 493,592 495,592 496,591 497,591 498,590 500,590 501,589 502,589 503,588 504,588 505,587 507,587 508,586 509,586 510,585 511,585 512,584 513,584 514,583 515,583 516,582 517,582 518,581 519,581 521,579 522,579 523,578 524,578 526,576 527,576 528,575 529,575 531,573 532,573 533,572 534,572 536,570 537,570 538,569 539,569 541,567 542,567 543,566 544,566 546,564 547,564 549,562 550,562 552,560 553,560 554,559 555,559 556,558 557,558 558,557 559,557 561,555 563,555 564,554 565,554 566,553 567,553 568,552 570,552 571,551 573,551 574,550 575,550 576,549 577,549 578,548 580,548 581,547 583,547 584,546 587,546 588,545 591,545 592,544 597,544 598,543 604,543 605,542 623,542 624,543 633,543 634,544 640,544 641,545 646,545 647,546 650,546 651,547 654,547 655,548 657,548 658,549 660,549 661,550 662,550 663,551 665,551 666,552 667,552 668,553 670,553 671,554 672,554 673,555 675,555 676,556 677,556 678,557 679,557 680,558 681,558 682,559 684,559 686,561 688,561 689,562 690,562 691,563 693,563 694,564 695,564 696,565 698,565 699,566 700,566 701,567 703,567 704,568 706,568 707,569 708,569 709,570 711,570 712,571 714,571 715,572 718,572 719,573 721,573 722,574 726,574 727,575 734,575 735,576 752,576 753,575 761,575 762,574 765,574 766,573 769,573 770,572 773,572 774,571 776,571 777,570 779,570 780,569 782,569 783,568 784,568 785,567 787,567 788,566 789,566 790,565 792,565 794,563 796,563 797,562 798,562 800,560 801,560 802,559 803,559 805,557 806,557 809,554 810,554 817,547 818,547 825,540 825,539 832,532 832,531 834,529 834,528 835,527 835,526 837,524 837,523 838,522 838,521 839,520 839,518 840,517 840,516 841,515 841,513 842,512 842,510 843,509 843,507 844,506 844,504 845,503 845,498 846,497 846,487 847,486 847,479 847,486 846,487 846,497 845,498 845,503 844,504 844,506 843,507 843,509 842,510 842,512 841,513 841,514 840,515 840,517 839,518 839,519 838,520 838,521 837,522 837,523 835,525 835,526 834,527 834,528 832,530 832,531 825,538 825,539 817,547 816,547 809,554 808,554 805,557 804,557 802,559 801,559 800,560 799,560 797,562 796,562 795,563 794,563 793,564 792,564 791,565 790,565 789,566 788,566 787,567 785,567 784,568 782,568 781,569 780,569 779,570 777,570 776,571 774,571 773,572 770,572 769,573 766,573 765,574 762,574 761,575 753,575 752,576 735,576 734,575 727,575 726,574 722,574 721,573 719,573 718,572 715,572 714,571 712,571 711,570 709,570 708,569 707,569 706,568 704,568 703,567 701,567 700,566 699,566 698,565 696,565 695,564 694,564 693,563 691,563 690,562 689,562 688,561 687,561 686,560 685,560 684,559 682,559 681,558 680,558 678,556 676,556 675,555 673,555 672,554 671,554 670,553 668,553 667,552 666,552 665,551 663,551 662,550 661,550 660,549 658,549 657,548 655,548 654,547 651,547 650,546 647,546 646,545 641,545 640,544 634,544 633,543 624,543 623,542 605,542 604,543 598,543 597,544 592,544 591,545 588,545 587,546 584,546 583,547 581,547 580,548 578,548 577,549 576,549 575,550 574,550 573,551 571,551 570,552 568,552 567,553 566,553 565,554 564,554 563,555 561,555 560,556 559,556 558,557 557,557 556,558 555,558 554,559 553,559 552,560 551,560 549,562 548,562 546,564 545,564 543,566 542,566 541,567 540,567 538,569 537,569 536,570 535,570 533,572 532,572 531,573 530,573 528,575 527,575 526,576 525,576 523,578 522,578 521,579 520,579 518,581 517,581 516,582 515,582 514,583 513,583 512,584 511,584 510,585 509,585 508,586 507,586 506,587 505,587 504,588 502,588 500,590 498,590 497,591 496,591 495,592 493,592 492,593 490,593 489,594 487,594 486,595 483,595 482,596 478,596 477,597 474,597 473,598 469,598 468,599 461,599 460,600 444,600 443,599 437,599 436,598 431,598 430,597 427,597 426,596 423,596 422,595 419,595 418,594 416,594 415,593 413,593 412,592 410,592 409,591 407,591 406,590 404,590 402,588 400,588 399,587 398,587 397,586 395,586 393,584 391,584 389,582 388,582 387,581 386,581 385,580 384,580 382,578 381,578 379,576 378,576 377,575 376,575 375,574 374,574 373,573 372,573 371,572 370,572 368,570 367,570 366,569 365,569 364,568 363,568 362,567 361,567 359,565 358,565 357,564 356,564 355,563 354,563 352,561 351,561 350,560 349,560 348,559 347,559 346,558 345,558 344,557 343,557 342,556 340,556 339,555 338,555 337,554 336,554 335,553 333,553 332,552 331,552 330,551 329,551 328,550 326,550 325,549 323,549 322,548 320,548 319,547 317,547 316,546 313,546 312,545 307,545 306,544 288,544 287,545 282,545 281,546 278,546 277,547 274,547 273,548 271,548 270,549 268,549 267,550 264,550 263,551 261,551 260,552 258,552 257,553 256,553 255,554 254,554 253,555 252,555 251,556 250,556 249,557 248,557 247,558 246,558 245,559 244,559 243,560 242,560 241,561 240,561 239,562 238,562 236,564 235,564 233,566 232,566 230,568 229,568 225,572 224,572 208,588 208,589 203,594 203,595 199,599 199,600 197,602 197,603 195,605 195,606 193,608 193,609 191,611 191,612 190,613 190,614 189,615 189,616 188,617 188,618 187,619 187,620 186,621 186,623 185,624 185,626 184,627 184,629 183,630 183,632 182,633 182,635 181,636 181,638 180,639 179,638 179,635 180,634 180,627 181,626 181,622 182,621 182,619 183,618 183,615 184,614 184,612 185,611 185,609 186,608 186,607 187,606 187,605 188,604 188,603 189,602 189,600 191,598 191,596 193,594 193,592 194,591 194,590 195,589 195,588 196,587 196,586 197,585 197,584 198,583 198,582 199,581 199,580 201,578 201,577 202,576 202,575 204,573 204,572 218,558 219,558 223,554 224,554 225,553 226,553 228,551 229,551 231,549 232,549 234,547 235,547 237,545 238,545 240,543 241,543 242,542 243,542 244,541 245,541 246,540 247,540 248,539 250,539 251,538 252,538 253,537 254,537 255,536 257,536 258,535 259,535 260,534 262,534 263,533 265,533 266,532 267,532 268,531 270,531 271,530 273,530 274,529 276,529 277,528 281,528 282,527 291,527 292,526 307,526 308,527 320,527 321,528 327,528 328,529 330,529 331,530 332,530 333,531 335,531 336,532 337,532 339,534 340,534 341,535 342,535 344,537 345,537 346,538 347,538 349,540 350,540 351,541 352,541 354,543 355,543 356,544 357,544 358,545 359,545 361,547 362,547 363,548 364,548 366,550 367,550 368,551 369,551 370,552 371,552 373,554 374,554 376,556 377,556 378,557 379,557 380,558 381,558 382,559 383,559 384,560 385,560 386,561 387,561 389,563 390,563 391,564 392,564 393,565 394,565 396,567 397,567 398,568 400,568 401,569 402,569 403,570 404,570 405,571 407,571 408,572 410,572 411,573 412,573 413,574 415,574 416,575 419,575 420,576 422,576 423,577 425,577 426,578 429,578 430,579 435,579 436,580 445,580 446,581 457,581 458,580 466,580 467,579 472,579 473,578 476,578 477,577 480,577 481,576 484,576 485,575 487,575 488,574 491,574 492,573 494,573 495,572 496,572 497,571 499,571 500,570 501,570 502,569 504,569 505,568 506,568 507,567 508,567 509,566 511,566 512,565 513,565 514,564 516,564 518,562 519,562 520,561 521,561 523,559 524,559 526,557 527,557 528,556 529,556 531,554 532,554 534,552 535,552 537,550 538,550 540,548 541,548 542,547 543,547 544,546 545,546 546,545 547,545 548,544 549,544 551,542 552,542 553,541 554,541 555,540 556,540 558,538 559,538 560,537 561,537 562,536 563,536 564,535 565,535 566,534 568,534 569,533 571,533 572,532 575,532 576,531 578,531 579,530 581,530 582,529 584,529 585,528 587,528 588,527 591,527 592,526 596,526 597,525 602,525 603,524 631,524 632,525 638,525 639,526 643,526 644,527 647,527 648,528 651,528 652,529 654,529 655,530 657,530 658,531 661,531 662,532 664,532 665,533 667,533 668,534 669,534 670,535 672,535 673,536 674,536 675,537 677,537 678,538 680,538 681,539 683,539 684,540 686,540 687,541 688,541 689,542 690,542 691,543 694,543 695,544 696,544 697,545 698,545 699,546 701,546 702,547 704,547 705,548 706,548 707,549 709,549 710,550 712,550 713,551 716,551 717,552 720,552 721,553 725,553 726,554 735,554 736,555 746,555 747,554 758,554 759,553 763,553 764,552 767,552 768,551 771,551 772,550 774,550 775,549 777,549 778,548 780,548 781,547 782,547 783,546 785,546 786,545 788,545 789,544 790,544 791,543 792,543 794,541 795,541 796,540 797,540 798,539 799,539 801,537 802,537 805,534 806,534 809,531 810,531 813,528 814,528 825,517 825,516 829,512 829,511 832,508 832,507 835,504 835,503 838,500 838,499 840,497 840,496 841,495 841,493 842,492 842,491 843,490 843,489 844,488 844,486 845,485 Z" fill="none" stroke="black" stroke-width="1" /><path d="M 601,459 601,463 Z" fill="none" stroke="black" stroke-width="1" /><path d="M 558,440 557,441 556,441 556,462 557,463 557,474 557,463 556,462 556,442 558,440 583,440 584,441 587,441 588,442 588,456 587,457 587,462 586,463 585,463 584,464 581,464 580,465 577,465 576,466 574,466 573,467 572,467 571,468 569,468 568,469 567,469 566,470 564,470 563,471 562,471 561,472 560,472 559,473 559,474 561,472 562,472 563,471 564,471 565,470 566,470 567,469 568,469 569,468 571,468 572,467 573,467 574,466 576,466 577,465 580,465 581,464 584,464 585,463 587,463 587,457 588,456 588,441 584,441 583,440 Z" fill="none" stroke="black" stroke-width="1" /><path d="M 842,424 842,427 840,429 839,429 839,430 838,431 838,433 837,434 837,435 836,436 836,437 835,438 835,439 834,440 834,441 833,442 833,443 832,444 832,445 831,446 831,447 830,448 830,449 829,450 829,451 828,452 828,453 826,455 826,456 825,457 825,458 823,460 823,461 821,463 821,464 817,468 817,469 807,479 807,480 802,485 801,485 797,489 796,489 794,491 793,491 790,494 789,494 787,496 786,496 785,497 784,497 783,498 782,498 781,499 780,499 779,500 778,500 777,501 776,501 775,502 773,502 771,504 769,504 768,505 766,505 765,506 762,506 761,507 757,507 756,508 749,508 748,509 733,509 732,508 725,508 724,507 719,507 718,506 716,506 715,505 713,505 712,504 710,504 709,503 707,503 706,502 704,502 703,501 700,501 699,500 697,500 696,499 694,499 693,498 692,498 691,497 690,497 689,496 688,496 687,495 686,495 685,494 684,494 683,493 682,493 681,492 680,492 679,491 678,491 677,490 676,490 675,489 674,489 673,488 671,488 670,487 669,487 668,486 666,486 665,485 664,485 663,484 661,484 660,483 658,483 657,482 652,482 651,481 640,481 639,480 629,480 628,479 622,479 621,478 615,478 614,477 606,477 605,476 599,476 598,477 597,477 596,478 595,478 594,479 592,479 591,480 589,480 588,481 586,481 585,482 583,482 582,483 580,483 579,484 577,484 576,485 575,485 574,486 572,486 571,487 570,487 569,488 567,488 566,489 565,489 564,490 563,490 562,491 560,491 559,492 558,492 557,493 556,493 555,494 554,494 553,495 552,495 551,496 550,496 548,498 547,498 545,500 544,500 542,502 541,502 539,504 538,504 536,506 535,506 534,507 533,507 531,509 530,509 528,511 527,511 526,512 525,512 523,514 522,514 521,515 520,515 518,517 517,517 515,519 514,519 513,520 512,520 510,522 509,522 508,523 506,523 505,524 504,524 503,525 502,525 500,527 498,527 497,528 496,528 495,529 493,529 492,530 490,530 489,531 487,531 486,532 483,532 482,533 479,533 478,534 474,534 473,535 468,535 467,536 444,536 443,535 437,535 436,534 432,534 431,533 428,533 427,532 424,532 423,531 421,531 420,530 418,530 417,529 416,529 415,528 413,528 411,526 409,526 408,525 407,525 406,524 405,524 404,523 403,523 402,522 401,522 399,520 397,520 395,518 394,518 393,517 392,517 391,516 390,516 388,514 387,514 386,513 385,513 383,511 382,511 379,508 378,508 376,506 375,506 371,502 370,502 368,500 367,500 365,498 364,498 363,497 362,497 360,495 359,495 357,493 356,493 353,490 352,490 350,488 349,488 347,486 346,486 345,485 344,485 342,483 341,483 340,482 339,482 338,481 337,481 336,480 334,480 332,478 331,478 330,477 329,477 328,476 327,476 325,474 324,474 323,473 322,473 321,472 320,472 319,471 318,471 317,470 316,470 315,469 314,469 313,468 312,468 311,467 310,467 309,466 307,466 306,465 305,465 304,464 302,464 301,463 299,463 298,462 296,462 295,461 292,461 291,460 285,460 284,459 269,459 268,460 262,460 261,461 258,461 257,462 255,462 254,463 253,463 252,464 250,464 249,465 248,465 247,466 245,466 244,467 243,467 242,468 240,468 239,469 238,469 237,470 236,470 235,471 234,471 233,472 232,472 230,474 229,474 228,475 227,475 224,478 223,478 221,480 220,480 218,482 217,482 213,486 212,486 204,494 204,495 199,500 199,501 195,505 195,506 192,509 192,510 191,511 191,512 189,514 189,515 188,516 188,517 187,518 187,519 186,520 186,521 185,522 185,523 184,524 184,526 183,527 183,529 182,530 182,535 181,536 181,545 181,541 182,540 183,540 183,538 189,532 189,531 192,528 192,527 194,525 194,524 196,522 196,521 198,519 198,518 200,516 200,515 202,513 202,512 203,511 203,510 205,508 205,507 215,497 216,497 221,492 222,492 224,490 225,490 226,489 227,489 229,487 230,487 232,485 233,485 234,484 235,484 237,482 238,482 239,481 240,481 241,480 242,480 243,479 245,479 246,478 247,478 249,476 251,476 252,475 254,475 255,474 258,474 259,473 262,473 263,472 267,472 268,471 288,471 289,472 293,472 294,473 297,473 298,474 300,474 301,475 303,475 305,477 306,477 307,478 308,478 309,479 311,479 312,480 313,480 315,482 316,482 317,483 318,483 319,484 320,484 322,486 323,486 325,488 326,488 328,490 329,490 330,491 331,491 333,493 334,493 335,494 336,494 338,496 339,496 341,498 342,498 344,500 345,500 348,503 349,503 351,505 352,505 354,507 355,507 357,509 358,509 361,512 362,512 364,514 365,514 367,516 368,516 369,517 370,517 372,519 373,519 375,521 376,521 378,523 379,523 381,525 382,525 384,527 385,527 387,529 388,529 389,530 390,530 391,531 392,531 393,532 394,532 395,533 396,533 397,534 398,534 400,536 402,536 403,537 404,537 405,538 406,538 407,539 408,539 409,540 411,540 412,541 414,541 415,542 417,542 418,543 420,543 421,544 424,544 425,545 427,545 428,546 433,546 434,547 440,547 441,548 464,548 465,547 471,547 472,546 476,546 477,545 480,545 481,544 484,544 485,543 488,543 489,542 491,542 492,541 494,541 495,540 497,540 498,539 499,539 500,538 502,538 504,536 506,536 507,535 508,535 509,534 510,534 511,533 513,533 514,532 515,532 516,531 517,531 519,529 520,529 522,527 523,527 524,526 525,526 527,524 528,524 529,523 530,523 532,521 533,521 534,520 535,520 538,517 539,517 541,515 542,515 544,513 545,513 546,512 547,512 548,511 549,511 550,510 551,510 553,508 554,508 555,507 556,507 557,506 558,506 559,505 560,505 561,504 562,504 563,503 564,503 565,502 567,502 569,500 571,500 572,499 573,499 574,498 576,498 577,497 579,497 580,496 583,496 584,495 586,495 587,494 590,494 591,493 595,493 596,492 602,492 603,491 634,491 635,492 641,492 642,493 645,493 646,494 649,494 650,495 653,495 654,496 656,496 657,497 660,497 661,498 662,498 663,499 665,499 666,500 667,500 668,501 669,501 670,502 671,502 672,503 674,503 675,504 677,504 678,505 679,505 680,506 681,506 683,508 684,508 685,509 686,509 687,510 688,510 689,511 691,511 692,512 694,512 695,513 696,513 697,514 699,514 700,515 703,515 704,516 706,516 707,517 709,517 710,518 713,518 714,519 717,519 718,520 722,520 723,521 726,521 727,522 735,522 736,523 744,523 745,522 754,522 755,521 758,521 759,520 762,520 763,519 765,519 766,518 769,518 771,516 773,516 774,515 775,515 776,514 778,514 779,513 780,513 781,512 782,512 783,511 784,511 785,510 786,510 787,509 788,509 789,508 790,508 791,507 792,507 794,505 795,505 798,502 799,502 802,499 803,499 811,491 812,491 814,489 814,488 821,481 821,480 825,476 825,475 827,473 827,472 829,470 829,469 831,467 831,466 834,463 834,462 835,461 835,460 837,458 837,457 838,456 838,455 839,454 839,453 840,452 840,450 841,449 841,448 842,447 842,444 843,443 843,438 844,437 844,425 843,424 Z" fill="none" stroke="black" stroke-width="1" /><path d="M 830,417 830,418 829,419 829,420 828,421 828,422 827,423 827,424 826,425 826,426 824,428 824,429 822,431 822,432 821,433 821,434 819,436 819,437 816,440 816,441 814,443 814,444 802,456 801,456 795,462 794,462 791,465 790,465 789,466 788,466 787,467 786,467 785,468 784,468 782,470 781,470 779,472 777,472 775,474 775,475 774,476 773,476 772,475 771,476 769,476 774,476 778,472 779,472 780,471 781,471 783,469 784,469 785,468 786,468 787,467 788,467 789,466 790,466 791,465 792,465 795,462 796,462 802,456 803,456 814,445 814,444 816,442 816,441 819,438 819,437 821,435 821,434 822,433 822,432 823,431 823,430 825,428 825,427 827,425 827,423 828,422 828,421 829,420 829,419 830,418 Z" fill="none" stroke="black" stroke-width="1" /><path d="M 833,416 833,418 Z" fill="none" stroke="black" stroke-width="1" /><path d="M 828,415 826,417 826,419 824,421 824,422 823,423 823,424 822,425 822,426 821,427 821,428 819,430 819,431 815,435 814,435 801,448 800,448 796,452 795,452 784,463 784,464 782,466 781,466 780,467 780,468 782,466 783,466 784,465 784,464 796,452 797,452 801,448 802,448 815,435 816,435 819,432 819,431 821,429 821,428 822,427 822,426 823,425 823,424 824,423 824,422 826,420 826,418 827,417 827,416 Z" fill="none" stroke="black" stroke-width="1" /><path d="M 322,402 323,402 Z" fill="none" stroke="black" stroke-width="1" /><path d="M 556,395 556,419 557,420 557,424 556,425 556,430 588,430 588,428 587,427 587,415 588,414 588,395 Z" fill="none" stroke="black" stroke-width="1" /><path d="M 515,395 514,396 514,415 515,416 515,429 546,429 547,428 546,427 546,403 547,402 547,395 Z" fill="none" stroke="black" stroke-width="1" /><path d="M 473,395 473,396 472,397 472,406 473,407 473,430 475,430 476,429 499,429 500,430 505,430 505,396 504,396 503,395 Z" fill="none" stroke="black" stroke-width="1" /><path d="M 432,395 432,402 431,403 431,406 432,407 432,430 449,430 450,429 454,429 455,430 463,430 463,396 462,396 461,395 Z" fill="none" stroke="black" stroke-width="1" /><path d="M 846,364 846,461 845,462 845,465 844,466 844,468 842,470 842,471 841,472 841,473 840,474 840,475 839,476 839,477 837,479 837,480 836,481 836,482 835,483 835,484 833,486 833,487 832,488 832,489 829,492 829,493 826,496 826,497 822,501 822,502 808,516 807,516 803,520 802,520 799,523 798,523 795,526 794,526 792,528 791,528 790,529 789,529 788,530 787,530 786,531 785,531 783,533 782,533 781,534 780,534 779,535 778,535 777,536 775,536 774,537 773,537 772,538 770,538 769,539 767,539 766,540 763,540 762,541 758,541 757,542 751,542 750,543 735,543 734,542 727,542 726,541 722,541 721,540 718,540 717,539 715,539 714,538 712,538 711,537 709,537 708,536 706,536 705,535 703,535 702,534 701,534 700,533 698,533 697,532 696,532 695,531 693,531 691,529 690,529 689,528 688,528 687,527 686,527 685,526 684,526 683,525 682,525 681,524 679,524 678,523 677,523 676,522 673,522 672,521 669,521 668,520 666,520 665,519 662,519 661,518 658,518 657,517 655,517 654,516 650,516 649,515 646,515 645,514 641,514 640,513 636,513 635,512 601,512 600,513 594,513 593,514 588,514 587,515 584,515 583,516 580,516 579,517 577,517 576,518 574,518 573,519 572,519 571,520 569,520 568,521 567,521 566,522 565,522 564,523 562,523 561,524 559,524 558,525 557,525 556,526 555,526 553,528 551,528 549,530 547,530 546,531 545,531 543,533 542,533 540,535 539,535 538,536 537,536 535,538 534,538 532,540 531,540 529,542 528,542 526,544 525,544 524,545 523,545 521,547 520,547 519,548 518,548 517,549 516,549 514,551 513,551 512,552 511,552 509,554 508,554 507,555 505,555 504,556 503,556 502,557 500,557 499,558 498,558 497,559 495,559 494,560 493,560 492,561 491,561 490,562 488,562 487,563 485,563 484,564 481,564 480,565 477,565 476,566 472,566 471,567 467,567 466,568 462,568 461,569 443,569 442,568 437,568 436,567 433,567 432,566 429,566 428,565 425,565 424,564 421,564 420,563 418,563 417,562 415,562 414,561 412,561 411,560 410,560 409,559 407,559 406,558 405,558 404,557 403,557 402,556 401,556 400,555 399,555 398,554 397,554 396,553 395,553 394,552 393,552 391,550 390,550 389,549 388,549 387,548 386,548 384,546 383,546 381,544 380,544 379,543 378,543 376,541 375,541 374,540 373,540 371,538 370,538 369,537 368,537 366,535 365,535 364,534 363,534 362,533 361,533 359,531 358,531 356,529 355,529 353,527 352,527 351,526 350,526 349,525 348,525 346,523 345,523 344,522 342,522 341,521 340,521 339,520 337,520 336,519 335,519 334,518 331,518 330,517 323,517 322,516 312,516 311,515 285,515 284,516 279,516 278,517 275,517 274,518 271,518 270,519 267,519 266,520 263,520 262,521 260,521 259,522 257,522 256,523 254,523 253,524 252,524 250,526 248,526 247,527 246,527 245,528 244,528 243,529 242,529 241,530 240,530 239,531 238,531 236,533 235,533 234,534 233,534 231,536 230,536 229,537 228,537 226,539 225,539 223,541 222,541 220,543 219,543 213,549 212,549 199,562 199,563 195,567 195,568 193,570 193,571 191,573 191,574 190,575 190,576 189,577 189,578 188,579 188,580 186,582 186,584 184,586 184,588 182,590 182,592 181,593 181,594 180,595 180,597 179,598 179,600 178,601 178,607 178,601 179,600 179,598 180,597 180,595 181,594 181,593 182,592 182,591 183,590 183,589 184,588 184,587 185,586 185,585 186,584 186,583 188,581 188,580 189,579 189,578 190,577 190,576 191,575 191,574 193,572 193,571 195,569 195,568 199,564 199,563 213,549 214,549 220,543 221,543 223,541 224,541 226,539 227,539 229,537 230,537 231,536 232,536 234,534 235,534 236,533 237,533 239,531 240,531 241,530 242,530 243,529 244,529 246,527 248,527 249,526 250,526 251,525 252,525 253,524 254,524 255,523 256,523 257,522 259,522 260,521 262,521 263,520 266,520 267,519 270,519 271,518 274,518 275,517 278,517 279,516 284,516 285,515 311,515 312,516 322,516 323,517 330,517 331,518 334,518 335,519 336,519 337,520 339,520 340,521 341,521 342,522 343,522 344,523 345,523 347,525 348,525 349,526 350,526 351,527 352,527 354,529 355,529 357,531 358,531 360,533 361,533 362,534 363,534 364,535 365,535 367,537 368,537 369,538 370,538 372,540 373,540 374,541 375,541 377,543 378,543 379,544 380,544 382,546 383,546 385,548 386,548 387,549 388,549 389,550 390,550 392,552 393,552 394,553 395,553 396,554 397,554 398,555 399,555 400,556 401,556 402,557 403,557 404,558 406,558 407,559 409,559 410,560 411,560 412,561 414,561 415,562 417,562 418,563 420,563 421,564 424,564 425,565 428,565 429,566 432,566 433,567 436,567 437,568 442,568 443,569 461,569 462,568 466,568 467,567 471,567 472,566 476,566 477,565 480,565 481,564 484,564 485,563 487,563 488,562 490,562 491,561 492,561 493,560 494,560 495,559 497,559 498,558 499,558 500,557 502,557 503,556 504,556 505,555 507,555 508,554 509,554 510,553 511,553 512,552 513,552 514,551 515,551 517,549 518,549 519,548 520,548 521,547 522,547 524,545 525,545 526,544 527,544 529,542 530,542 532,540 533,540 535,538 536,538 538,536 539,536 540,535 541,535 543,533 544,533 546,531 547,531 548,530 549,530 550,529 551,529 552,528 553,528 554,527 555,527 556,526 557,526 558,525 559,525 560,524 561,524 562,523 564,523 565,522 566,522 567,521 569,521 570,520 571,520 572,519 573,519 574,518 576,518 577,517 579,517 580,516 583,516 584,515 587,515 588,514 593,514 594,513 600,513 601,512 635,512 636,513 640,513 641,514 645,514 646,515 649,515 650,516 654,516 655,517 657,517 658,518 661,518 662,519 665,519 666,520 668,520 669,521 672,521 673,522 676,522 677,523 678,523 679,524 680,524 681,525 682,525 683,526 684,526 685,527 686,527 687,528 688,528 689,529 690,529 691,530 692,530 693,531 695,531 696,532 697,532 698,533 700,533 701,534 702,534 703,535 705,535 706,536 708,536 709,537 711,537 712,538 714,538 715,539 717,539 718,540 721,540 722,541 726,541 727,542 734,542 735,543 750,543 751,542 757,542 758,541 762,541 763,540 766,540 767,539 769,539 770,538 772,538 773,537 775,537 776,536 777,536 778,535 780,535 781,534 782,534 783,533 784,533 786,531 787,531 788,530 789,530 790,529 791,529 792,528 793,528 795,526 796,526 799,523 800,523 803,520 804,520 808,516 809,516 822,503 822,502 826,498 826,497 829,494 829,493 832,490 832,489 833,488 833,487 835,485 835,484 836,483 836,482 837,481 837,480 839,478 839,477 840,476 840,475 841,474 841,473 842,472 842,471 843,470 843,469 844,468 844,466 845,465 845,462 846,461 Z" fill="none" stroke="black" stroke-width="1" /><path d="M 844,364 844,372 843,373 843,382 842,383 842,391 841,392 841,398 840,399 840,401 839,402 839,404 838,405 838,408 837,409 837,412 836,413 836,416 835,417 835,422 834,423 834,426 833,427 833,428 832,429 832,430 831,431 831,432 830,433 830,434 828,436 828,437 827,438 827,439 826,440 826,441 825,442 825,443 823,445 823,446 820,449 820,450 818,452 818,453 808,463 807,463 804,466 803,466 800,469 799,469 796,472 795,472 793,474 792,474 791,475 790,475 789,476 788,476 786,478 784,478 783,479 782,479 781,480 780,480 779,481 778,481 777,482 775,482 774,483 772,483 771,484 770,484 769,485 767,485 766,486 764,486 763,487 761,487 760,488 757,488 756,489 752,489 751,490 734,490 733,489 728,489 727,488 722,488 721,487 717,487 716,486 714,486 713,485 710,485 709,484 707,484 706,483 705,483 704,482 702,482 701,481 699,481 698,480 696,480 695,479 694,479 693,478 692,478 691,477 690,477 689,476 687,476 685,474 684,474 683,473 682,473 681,472 679,472 678,471 676,471 675,470 674,470 673,469 671,469 670,468 668,468 667,467 666,467 665,466 663,466 662,465 660,465 659,464 657,464 656,463 654,463 653,462 651,462 650,461 647,461 646,460 643,460 642,459 637,459 636,458 626,458 625,457 614,457 613,456 603,456 602,457 601,457 602,457 603,456 613,456 614,457 625,457 626,458 636,458 637,459 642,459 643,460 646,460 647,461 650,461 651,462 653,462 654,463 656,463 657,464 659,464 660,465 662,465 663,466 665,466 666,467 667,467 668,468 670,468 671,469 673,469 674,470 675,470 676,471 678,471 679,472 680,472 681,473 682,473 683,474 684,474 685,475 686,475 687,476 688,476 689,477 691,477 692,478 693,478 694,479 695,479 696,480 698,480 699,481 701,481 702,482 704,482 705,483 706,483 707,484 709,484 710,485 713,485 714,486 716,486 717,487 721,487 722,488 727,488 728,489 733,489 734,490 751,490 752,489 756,489 757,488 760,488 761,487 763,487 764,486 766,486 767,485 769,485 770,484 771,484 772,483 774,483 775,482 777,482 778,481 779,481 780,480 782,480 784,478 786,478 787,477 788,477 789,476 790,476 791,475 792,475 793,474 794,474 796,472 797,472 800,469 801,469 804,466 805,466 808,463 809,463 818,454 818,453 820,451 820,450 823,447 823,446 825,444 825,443 826,442 826,441 827,440 827,439 828,438 828,437 830,435 830,434 831,433 831,432 832,431 832,430 833,429 833,427 834,426 834,423 835,422 835,417 836,416 836,413 837,412 837,409 838,408 838,405 839,404 839,402 840,401 840,399 841,398 841,392 842,391 842,383 843,382 843,373 844,372 Z" fill="none" stroke="black" stroke-width="1" /><path d="M 560,348 559,349 556,349 556,383 558,385 586,385 587,384 588,384 588,348 Z" fill="none" stroke="black" stroke-width="1" /><path d="M 520,348 519,349 515,349 515,350 514,351 514,366 515,367 515,384 546,384 546,349 545,348 544,349 540,349 539,348 Z" fill="none" stroke="black" stroke-width="1" /><path d="M 499,348 498,349 473,349 473,385 503,385 504,384 505,384 505,349 504,349 503,348 Z" fill="none" stroke="black" stroke-width="1" /><path d="M 458,348 457,349 432,349 432,359 431,360 431,367 432,368 432,385 462,385 463,384 463,349 462,349 461,348 Z" fill="none" stroke="black" stroke-width="1" /><path d="M 508,291 507,292 506,292 504,294 504,321 505,322 505,337 504,338 474,338 473,337 473,299 472,298 472,296 471,296 470,295 467,295 466,296 465,296 463,298 463,337 462,338 433,338 432,337 432,299 430,297 429,297 428,296 426,296 425,297 424,297 422,299 422,300 421,301 421,304 422,305 422,336 421,337 403,337 402,338 400,338 397,341 397,343 396,344 397,345 397,346 399,348 400,348 401,349 421,349 422,350 422,382 423,383 422,384 402,384 401,385 399,385 396,388 396,392 399,395 400,395 401,396 411,396 412,395 421,395 423,397 423,409 422,410 422,427 423,428 422,429 410,429 409,428 406,428 405,429 402,429 401,430 400,430 398,432 398,438 400,440 401,440 402,441 421,441 423,443 423,457 422,458 422,471 421,472 421,476 422,477 422,479 424,481 429,481 430,480 431,480 433,478 433,471 432,470 432,442 433,441 434,441 435,440 458,440 459,441 462,441 463,442 463,474 462,475 462,477 463,478 463,481 464,482 465,482 466,483 471,483 473,481 473,479 474,478 474,474 473,473 473,441 474,440 503,440 505,442 505,457 504,458 504,477 505,478 505,479 506,480 508,480 509,481 511,481 512,480 513,480 515,478 515,476 516,475 515,474 515,453 514,452 514,442 516,440 545,440 547,442 547,473 549,475 552,475 553,476 552,477 550,477 549,478 548,478 547,479 546,479 545,480 544,480 543,481 542,481 540,483 539,483 537,485 536,485 533,488 532,488 529,491 528,491 527,492 526,492 524,494 523,494 521,496 520,496 519,497 518,497 516,499 515,499 514,500 513,500 512,501 511,501 510,502 509,502 508,503 507,503 506,504 505,504 503,506 502,506 501,507 500,507 499,508 498,508 497,509 495,509 494,510 493,510 492,511 490,511 489,512 487,512 486,513 484,513 483,514 479,514 478,515 472,515 471,516 440,516 439,515 435,515 434,514 430,514 429,513 427,513 426,512 424,512 423,511 421,511 420,510 418,510 417,509 415,509 414,508 413,508 412,507 411,507 410,506 409,506 408,505 407,505 406,504 405,504 404,503 403,503 402,502 401,502 400,501 399,501 398,500 397,500 396,499 395,499 393,497 392,497 391,496 390,496 388,494 387,494 385,492 384,492 382,490 381,490 378,487 377,487 375,485 374,485 372,483 371,483 369,481 368,481 366,479 365,479 362,476 361,476 359,474 358,474 356,472 355,472 352,469 351,469 349,467 348,467 347,466 346,466 345,465 344,465 343,464 342,464 341,463 340,463 339,462 338,462 336,460 335,460 334,459 333,459 332,458 331,458 329,456 328,456 327,455 326,455 325,454 324,454 323,453 322,453 321,452 320,452 319,451 317,451 316,450 314,450 313,449 312,449 311,448 308,448 307,447 304,447 303,446 300,446 299,445 294,445 293,444 287,444 286,443 264,443 263,444 259,444 258,445 254,445 253,446 250,446 249,447 246,447 245,448 243,448 242,449 240,449 239,450 238,450 237,451 236,451 235,452 234,452 233,453 232,453 230,455 229,455 228,456 227,456 226,457 225,457 223,459 222,459 220,461 219,461 216,464 215,464 212,467 211,467 206,472 205,472 203,474 203,475 192,486 192,487 188,491 188,492 187,493 187,494 185,496 185,497 184,498 184,499 183,500 183,501 182,502 182,503 181,504 181,506 180,507 180,509 179,510 179,512 178,513 178,515 177,516 177,523 176,524 176,560 176,524 177,523 177,516 178,515 178,513 179,512 179,510 180,509 180,507 181,506 181,505 182,504 182,503 183,502 183,501 184,500 184,499 185,498 185,497 187,495 187,494 188,493 188,492 192,488 192,487 202,477 203,478 202,477 203,476 203,475 206,472 207,472 212,467 213,467 216,464 217,464 220,461 221,461 223,459 224,459 226,457 227,457 228,456 229,456 230,455 231,455 233,453 234,453 235,452 236,452 237,451 238,451 239,450 240,450 241,449 242,449 243,448 245,448 246,447 249,447 250,446 253,446 254,445 258,445 259,444 263,444 264,443 286,443 287,444 293,444 294,445 299,445 300,446 303,446 304,447 307,447 308,448 311,448 312,449 313,449 314,450 316,450 317,451 319,451 321,453 323,453 325,455 326,455 327,456 328,456 330,458 331,458 332,459 333,459 334,460 335,460 337,462 338,462 339,463 340,463 341,464 342,464 343,465 344,465 345,466 346,466 347,467 348,467 350,469 351,469 354,472 355,472 357,474 358,474 360,476 361,476 364,479 365,479 367,481 368,481 370,483 371,483 373,485 374,485 376,487 377,487 380,490 381,490 383,492 384,492 386,494 387,494 389,496 390,496 391,497 392,497 394,499 395,499 396,500 397,500 398,501 399,501 400,502 401,502 402,503 403,503 404,504 405,504 406,505 407,505 408,506 410,506 411,507 412,507 413,508 414,508 415,509 417,509 418,510 420,510 421,511 423,511 424,512 426,512 427,513 429,513 430,514 434,514 435,515 439,515 440,516 471,516 472,515 478,515 479,514 483,514 484,513 486,513 487,512 489,512 490,511 492,511 493,510 494,510 495,509 497,509 498,508 500,508 501,507 502,507 503,506 504,506 506,504 507,504 508,503 509,503 510,502 511,502 512,501 513,501 514,500 515,500 516,499 517,499 519,497 520,497 521,496 522,496 524,494 525,494 527,492 528,492 529,491 530,491 533,488 534,488 537,485 538,485 540,483 541,483 543,481 544,481 546,479 548,479 550,477 554,477 553,476 555,474 554,475 550,475 547,472 547,441 546,440 515,440 515,441 514,442 514,452 515,453 515,474 516,475 515,476 515,477 511,481 509,481 508,480 507,480 505,478 505,477 504,476 504,458 505,457 505,442 503,440 473,440 473,473 474,474 474,478 473,479 473,480 470,483 467,483 466,482 465,482 463,480 463,478 462,477 462,475 463,474 463,441 459,441 458,440 435,440 434,441 432,441 432,470 433,471 433,477 430,480 429,480 428,481 425,481 422,478 422,477 421,476 421,472 422,471 422,458 423,457 423,443 422,442 422,441 402,441 398,437 398,433 402,429 405,429 406,428 409,428 410,429 422,429 423,428 422,427 422,410 423,409 423,396 422,396 421,395 412,395 411,396 401,396 396,391 396,389 400,385 401,385 402,384 422,384 423,383 422,382 422,349 401,349 396,344 397,343 397,342 401,338 402,338 403,337 422,337 422,305 421,304 421,301 426,296 428,296 432,300 432,338 463,338 463,299 467,295 470,295 472,297 472,298 473,299 473,338 505,338 505,322 504,321 504,295 508,291 509,291 514,296 514,333 515,334 514,335 514,336 515,337 515,338 545,338 546,337 546,298 548,296 549,296 550,295 553,295 555,297 555,298 556,299 556,337 557,337 558,338 584,338 585,337 588,337 588,330 587,329 587,299 590,296 591,296 592,295 594,295 598,299 598,305 597,306 597,310 598,311 598,323 597,324 597,331 598,332 598,337 599,338 604,338 605,337 617,337 620,340 620,341 621,342 621,345 619,347 618,347 616,349 607,349 606,348 597,348 597,366 598,367 598,384 599,385 600,384 617,384 618,385 619,385 620,386 620,387 621,388 621,389 622,390 622,391 617,396 611,396 610,395 597,395 597,411 598,412 598,430 602,430 603,429 617,429 621,433 621,436 616,441 599,441 598,442 598,452 599,453 599,474 599,453 598,452 598,443 600,441 616,441 617,440 618,440 621,437 621,433 620,432 620,431 618,429 603,429 602,430 599,430 598,429 598,412 597,411 597,396 598,395 610,395 611,396 617,396 618,395 619,395 621,393 621,392 622,391 622,390 621,389 621,387 620,386 620,385 619,385 618,384 600,384 599,385 598,384 598,367 597,366 597,349 598,348 606,348 607,349 616,349 617,348 618,348 619,347 620,347 621,346 621,341 620,340 620,339 618,337 605,337 604,338 599,338 598,337 598,332 597,331 597,324 598,323 598,311 597,310 597,306 598,305 598,299 597,298 597,297 595,295 592,295 591,296 589,296 587,298 587,329 588,330 588,336 587,337 585,337 584,338 558,338 556,336 556,298 555,297 555,296 554,295 549,295 548,296 547,296 546,297 546,336 544,338 516,338 514,336 514,335 515,334 514,333 514,295 511,292 510,292 509,291 Z" fill="none" stroke="black" stroke-width="1" /><path d="M 458,202 457,203 455,203 451,207 451,208 450,209 450,213 455,218 562,218 563,217 564,217 567,214 567,207 566,206 566,205 564,203 562,203 561,202 553,202 552,203 468,203 467,202 Z" fill="none" stroke="black" stroke-width="1" /><path d="M 416,179 415,180 389,180 388,181 385,181 384,182 382,182 381,183 379,183 378,184 376,184 375,185 374,185 373,186 371,186 370,187 369,187 367,189 366,189 365,190 364,190 363,191 362,191 360,193 359,193 349,203 349,204 348,205 348,206 344,210 344,211 343,212 343,213 341,215 341,217 340,218 340,220 339,221 339,222 338,223 338,224 337,225 337,226 336,227 336,229 335,230 335,233 334,234 334,240 333,241 333,286 334,287 334,294 332,296 322,296 320,298 320,301 319,302 319,336 320,337 320,339 321,339 322,340 324,340 325,341 333,341 334,342 334,358 333,359 325,359 324,360 322,360 320,362 320,369 319,370 319,372 320,373 320,380 319,381 319,395 320,396 320,398 321,399 322,399 323,400 326,400 327,401 332,401 334,403 334,439 335,440 335,441 336,442 337,442 339,444 340,444 342,446 343,446 345,448 346,448 348,450 349,450 351,452 352,452 354,454 355,454 356,455 356,454 355,454 353,452 352,452 350,450 349,450 347,448 346,448 344,446 343,446 341,444 340,444 338,442 336,442 335,441 335,440 334,439 334,402 333,402 332,401 327,401 326,400 323,400 320,397 320,396 319,395 319,381 320,380 320,373 319,372 319,370 320,369 320,363 323,360 324,360 325,359 334,359 334,341 325,341 324,340 323,340 322,339 321,339 320,338 320,337 319,336 319,302 320,301 320,299 321,298 321,297 322,296 333,296 333,295 334,294 334,287 333,286 333,241 334,240 334,234 335,233 335,230 336,229 336,227 338,225 338,223 339,222 339,221 340,220 340,218 341,217 341,216 343,214 343,213 344,212 344,211 348,207 348,206 349,205 349,204 360,193 361,193 363,191 364,191 365,190 366,190 367,189 368,189 370,187 371,187 372,186 373,186 374,185 375,185 376,184 378,184 379,183 381,183 382,182 384,182 385,181 388,181 389,180 415,180 416,179 584,179 585,180 598,180 599,179 609,179 610,180 624,180 625,181 630,181 631,182 634,182 635,183 637,183 638,184 640,184 641,185 642,185 643,186 644,186 645,187 646,187 647,188 648,188 650,190 651,190 654,193 655,193 658,196 659,196 666,203 666,204 670,208 670,209 672,211 672,212 673,213 673,214 674,215 674,216 676,218 676,219 677,220 677,222 678,223 678,224 679,225 679,226 680,227 680,229 681,230 681,233 682,234 682,239 683,240 683,452 682,453 682,455 681,456 679,454 678,454 676,452 674,452 673,451 672,451 671,450 670,450 669,449 667,449 666,448 665,448 664,447 662,447 659,444 659,260 658,259 658,256 657,255 657,254 656,253 656,251 655,250 655,249 648,242 647,242 645,240 643,240 642,239 640,239 639,238 636,238 635,237 397,237 396,238 378,238 377,239 375,239 374,240 372,240 371,241 370,241 368,243 367,243 364,246 364,247 362,249 362,250 360,252 360,254 359,255 359,258 358,259 358,455 358,259 359,258 359,255 360,254 360,253 361,252 361,251 364,248 364,247 368,243 369,243 371,241 372,241 373,240 374,240 375,239 377,239 378,238 396,238 397,237 635,237 636,238 639,238 640,239 642,239 643,240 644,240 646,242 647,242 655,250 655,251 656,252 656,253 657,254 657,255 658,256 658,259 659,260 659,444 660,445 660,446 661,446 662,447 664,447 665,448 666,448 667,449 669,449 670,450 671,450 672,451 673,451 674,452 675,452 677,454 678,454 680,456 682,456 682,453 683,452 683,240 682,239 682,234 681,233 681,230 680,229 680,227 679,226 679,225 678,224 678,222 677,221 677,219 676,218 676,217 674,215 674,214 673,213 673,212 672,211 672,210 670,208 670,207 666,203 666,202 660,196 659,196 656,193 655,193 652,190 651,190 649,188 648,188 647,187 646,187 645,186 644,186 643,185 641,185 640,184 638,184 637,183 635,183 634,182 631,182 630,181 625,181 624,180 610,180 609,179 599,179 598,180 585,180 584,179 Z" fill="none" stroke="black" stroke-width="1" /></svg>